<svg id="Layer_1" data-name="Layer 1" xmlns="http://www.w3.org/2000/svg" xmlns:xlink="http://www.w3.org/1999/xlink" viewBox="0 0 316 100"><defs><style>.cls-1{fill:#fff;}.cls-2{fill:url(#linear-gradient);}.cls-3{fill:url(#linear-gradient-2);}</style><linearGradient id="linear-gradient" x1="36.06" y1="34.37" x2="60.24" y2="76.25" gradientUnits="userSpaceOnUse"><stop offset="0" stop-color="#ffd164"/><stop offset="0.26" stop-color="#fccf63"/><stop offset="0.45" stop-color="#f3c761"/><stop offset="0.61" stop-color="#e3bb5d"/><stop offset="0.76" stop-color="#cdaa57"/><stop offset="0.9" stop-color="#b1934f"/><stop offset="1" stop-color="#988049"/></linearGradient><linearGradient id="linear-gradient-2" x1="55.18" y1="36.02" x2="73.23" y2="67.3" xlink:href="#linear-gradient"/></defs><title>logo</title><path class="cls-1" d="M120.84,39.81H109.21V39a8.1,8.1,0,0,0,1.85-.23,1.35,1.35,0,0,0,.87-.68,3.3,3.3,0,0,0,.26-1.47V21.86a1.5,1.5,0,0,0-.7-1.46,5.78,5.78,0,0,0-2.28-.49v-.8h12.12a12.05,12.05,0,0,1,4.35.77,10,10,0,0,1,3.42,2.2,9.67,9.67,0,0,1,2.2,3.35,11,11,0,0,1,.78,4.17,10.27,10.27,0,0,1-.8,4A9.41,9.41,0,0,1,129,36.9,10.65,10.65,0,0,1,125.4,39,13.14,13.14,0,0,1,120.84,39.81Zm-7.2-3.1V23.16a6.65,6.65,0,0,0-.32-2.46c-.22-.48-.77-.72-1.67-.73a1.64,1.64,0,0,1,.82.8,3.88,3.88,0,0,1,.2,1.46V36.34a7.67,7.67,0,0,1-.1,1.43,1.79,1.79,0,0,1-.31.77,1.58,1.58,0,0,1-.61.46,1.9,1.9,0,0,0,1.55-.54A2.77,2.77,0,0,0,113.64,36.71Zm2.25-12.56V36a7.46,7.46,0,0,0,.17,1.86,1.4,1.4,0,0,0,.84.86A5.79,5.79,0,0,0,119,39a11.3,11.3,0,0,0,2.86-.33,7.51,7.51,0,0,0,2.41-1.15,8.73,8.73,0,0,0,2.11-2.09,7.68,7.68,0,0,0,1.11-2.56,13.57,13.57,0,0,0,.34-3.19q0-5.23-3.06-7.84a7.49,7.49,0,0,0-2.7-1.49,12.5,12.5,0,0,0-3.49-.44,3.49,3.49,0,0,0-2,.41,1.61,1.61,0,0,0-.67,1.16A20.26,20.26,0,0,0,115.89,24.15ZM122.74,39a6.8,6.8,0,0,0,3.37-1.29,7.43,7.43,0,0,0,2.37-3.13,12.2,12.2,0,0,0,.87-4.84,15.23,15.23,0,0,0-.42-3.7,9.4,9.4,0,0,0-1.22-2.92,6.49,6.49,0,0,0-2-2,5.21,5.21,0,0,0-1.4-.69,13.35,13.35,0,0,0-1.6-.4q5.61,2.22,5.61,9.8a12.43,12.43,0,0,1-.59,4,7.83,7.83,0,0,1-1.86,3A9.73,9.73,0,0,1,122.74,39Z"/><path class="cls-1" d="M143.05,26.73V29a16.08,16.08,0,0,1,1.73-1.76,2.22,2.22,0,0,1,1.45-.5,1.68,1.68,0,0,1,1.24.52,1.82,1.82,0,0,1,.51,1.32,2,2,0,0,1-.46,1.37,1.4,1.4,0,0,1-1.14.55,2.22,2.22,0,0,1-.68-.12,1.94,1.94,0,0,1-.61-.31l-.31-.24a2.06,2.06,0,0,0-.29-.21.5.5,0,0,0-.27-.07.9.9,0,0,0-.55.21,5.36,5.36,0,0,0-.62.59v7.09a2,2,0,0,0,.21,1.08,1,1,0,0,0,.66.41,10.74,10.74,0,0,0,1.56.08v.81h-7.87V39H138c1.14,0,1.7-.45,1.7-1.35V31.06c0-1.12-.69-1.9-2.09-2.32v-.49l4.72-1.52Zm-2.86,4.33v6.68a1.33,1.33,0,0,1-.16.74,3.49,3.49,0,0,1-.47.52,1.85,1.85,0,0,0,1.2-.45,1.8,1.8,0,0,0,.37-1.3V31.06a3,3,0,0,0-.44-1.83,1.67,1.67,0,0,0-1.4-.57l-.32,0a1.81,1.81,0,0,1-.34,0A2.38,2.38,0,0,1,140.19,31.06ZM144,29a1.42,1.42,0,0,1,.8.27,2.67,2.67,0,0,0,1.52.72c.51,0,.88-.33,1.12-1a1.6,1.6,0,0,1-.61.21,1.64,1.64,0,0,1-.88-.29,1.6,1.6,0,0,0-.92-.46A2,2,0,0,0,144,29Z"/><path class="cls-1" d="M155.52,36.48a1.72,1.72,0,0,1,1.29.55,1.79,1.79,0,0,1,.54,1.31,1.82,1.82,0,0,1-.26.94,2,2,0,0,1-.67.67,1.77,1.77,0,0,1-2.19-.3,1.87,1.87,0,0,1-.52-1.31,1.85,1.85,0,0,1,.51-1.32A1.74,1.74,0,0,1,155.52,36.48Zm.29,3.09a2.48,2.48,0,0,1-.48-.59,1.4,1.4,0,0,1-.15-.7,1.57,1.57,0,0,1,.15-.76,1.49,1.49,0,0,1,.48-.5,1,1,0,0,0-.35-.05,1.23,1.23,0,0,0-.88.39,1.33,1.33,0,0,0-.38,1,1.23,1.23,0,0,0,.38.91,1.19,1.19,0,0,0,.85.38A2,2,0,0,0,155.81,39.57Z"/><path class="cls-1" d="M188.41,36.2,186.77,32h-6.94l-1,2.49a5.41,5.41,0,0,0-.38,2,2.66,2.66,0,0,0,.62,1.73,2.27,2.27,0,0,0,1.74.79v.81h-6.79V39c1.52-.23,2.74-1.53,3.67-3.92l5.07-13a2.34,2.34,0,0,0-.83-.93,3.63,3.63,0,0,0-1.29-.33V20.1l3.52-1.2h1.35l6.79,17.33a5.39,5.39,0,0,0,1.17,2,4,4,0,0,0,1.79.79v.81h-8.71V39a6.68,6.68,0,0,0,1.69-.35.9.9,0,0,0,.57-.91A3.93,3.93,0,0,0,188.41,36.2ZM175.62,39h2.82a2.2,2.2,0,0,1-.93-1.81,3,3,0,0,1,0-.48,8.74,8.74,0,0,1-.8,1.25A5.73,5.73,0,0,1,175.62,39Zm4.56-7.94h6.22l-3.12-7.9Zm9.57,4.59-5.24-13.27a4.19,4.19,0,0,0-.79-1.42,1.52,1.52,0,0,0-1.13-.42,3.14,3.14,0,0,0-.69.06,2.36,2.36,0,0,1,1.06.78,5.73,5.73,0,0,1,.68,1.34L188.84,36a5.25,5.25,0,0,1,.48,1.83.94.94,0,0,1-.16.62,4.45,4.45,0,0,1-.65.56h.33a1.43,1.43,0,0,0,1.06-.37,1.15,1.15,0,0,0,.37-.86A6.65,6.65,0,0,0,189.75,35.65Z"/><path class="cls-1" d="M201.19,32.35h1a15.1,15.1,0,0,0,1.95,3.9,7.89,7.89,0,0,0,2.48,2.34,5.57,5.57,0,0,0,2.81.76,4.59,4.59,0,0,0,3.13-1.14,3.76,3.76,0,0,0,1.31-2.94,3.66,3.66,0,0,0-.87-2.6,4.64,4.64,0,0,0-2.06-1.31,23.86,23.86,0,0,0-3.17-.69,19.67,19.67,0,0,1-2.79-.61,6.43,6.43,0,0,1-2.17-1.21A5,5,0,0,1,201.41,27a5.79,5.79,0,0,1-.46-2.32,6.36,6.36,0,0,1,.41-2.25,6.17,6.17,0,0,1,1.16-1.93,5.58,5.58,0,0,1,1.83-1.32,5.81,5.81,0,0,1,2.4-.48,12.7,12.7,0,0,1,2.34.27,11.83,11.83,0,0,0,2,.27,3.24,3.24,0,0,0,1.5-.35h1.11l.63,6h-1a15.1,15.1,0,0,0-3-4.12,5.36,5.36,0,0,0-3.7-1.41,4.05,4.05,0,0,0-2,.49,4,4,0,0,0-1.46,1.36,3.52,3.52,0,0,0-.55,1.91,2.69,2.69,0,0,0,1,2.24,7.07,7.07,0,0,0,3,1.17c1.3.27,2.47.49,3.5.68a9.33,9.33,0,0,1,2.46.72,6.26,6.26,0,0,1,2.6,2.27,6,6,0,0,1,.92,3.29,6.6,6.6,0,0,1-.85,3.28,6.61,6.61,0,0,1-5.82,3.36,6,6,0,0,1-1.62-.16q-.54-.16-1.86-.63a6.75,6.75,0,0,0-2-.47,2.22,2.22,0,0,0-1.86.9h-.83Zm.48-9.37a8.37,8.37,0,0,0-.25,1.8,5.11,5.11,0,0,0,.26,1.57,5.69,5.69,0,0,0,.78,1.48A4.77,4.77,0,0,0,203.62,29a5.45,5.45,0,0,0,1.91.83c.69.16,1.71.35,3,.58a15.62,15.62,0,0,1,2.77.63,4.67,4.67,0,0,1,2.19,1.57,4.07,4.07,0,0,1,.78,2.48,4.88,4.88,0,0,1-.6,2.23,4.08,4.08,0,0,0,1.21-2.92,3.94,3.94,0,0,0-.89-2.72,5.41,5.41,0,0,0-2.2-1.47,23.49,23.49,0,0,0-3.59-.88l-2.33-.41A5.83,5.83,0,0,1,202.75,27a4.76,4.76,0,0,1-1.08-3.08c0-.22,0-.4,0-.55S201.66,23.1,201.67,23Zm0,12.1V39a2.28,2.28,0,0,1,.78-.72,2.57,2.57,0,0,1,1.11-.13c-.32-.38-.55-.67-.69-.85a6.87,6.87,0,0,1-.53-.8A10.17,10.17,0,0,1,201.67,35.08Zm11.06-12.22-.48-2.8a3,3,0,0,1-1,.16,4.47,4.47,0,0,1-1.15-.16,5.43,5.43,0,0,1,1,.85,13.75,13.75,0,0,1,.93,1.13A8.87,8.87,0,0,0,212.73,22.86Z"/><path class="cls-1" d="M236,39.81V39a8.43,8.43,0,0,0,2.07-.29,1.29,1.29,0,0,0,.8-.78,6.23,6.23,0,0,0,.19-1.85v-6.4H228.64v6.08a12.79,12.79,0,0,0,.08,1.63,1.73,1.73,0,0,0,.37.88,1.63,1.63,0,0,0,.85.48,11.58,11.58,0,0,0,1.74.25v.81h-9.8V39a11.17,11.17,0,0,0,1.62-.14,1.72,1.72,0,0,0,.9-.42,1.58,1.58,0,0,0,.45-.86A7.74,7.74,0,0,0,225,36V22.26a2.07,2.07,0,0,0-.66-1.84,5.15,5.15,0,0,0-2.44-.51v-.8h9.8v.8a5.55,5.55,0,0,0-2.08.31,1.39,1.39,0,0,0-.8.94,10,10,0,0,0-.16,2.07V28.6h10.43V22.44a3.64,3.64,0,0,0-.25-1.58,1.3,1.3,0,0,0-.85-.67,11.3,11.3,0,0,0-2-.28v-.8h9.8v.8a7.28,7.28,0,0,0-2.08.28,1.29,1.29,0,0,0-.8.88,8.39,8.39,0,0,0-.19,2.16V36a6.93,6.93,0,0,0,.18,1.82,1.42,1.42,0,0,0,.83.9,5.12,5.12,0,0,0,2.06.26v.81ZM225.46,22.38v14a4,4,0,0,1-.29,1.79,2.36,2.36,0,0,1-.74.82h.43a1.22,1.22,0,0,0,1.19-.67,4.55,4.55,0,0,0,.35-2V23.16a15.9,15.9,0,0,0-.1-2.05,1.4,1.4,0,0,0-.52-.95,2.08,2.08,0,0,0-1.35-.25,1.82,1.82,0,0,1,.8.8A4.43,4.43,0,0,1,225.46,22.38Zm14.1-.21V36.71a3.39,3.39,0,0,1-.25,1.52,2.32,2.32,0,0,1-.81.77H239a1.36,1.36,0,0,0,1.15-.46,2.37,2.37,0,0,0,.35-1.43V22.55a5.74,5.74,0,0,0-.26-2c-.18-.43-.61-.65-1.29-.65h-.43a1.61,1.61,0,0,1,.84.78A4,4,0,0,1,239.56,22.17Z"/><path class="cls-1" d="M251.51,19.11h9.77v.8a5.77,5.77,0,0,0-2.13.36,1.4,1.4,0,0,0-.82,1.33c0,.41,0,.74-.06,1a3.05,3.05,0,0,1,0,.31V36.42a4.06,4.06,0,0,0,.19,1.38,1.37,1.37,0,0,0,.52.73,1.94,1.94,0,0,0,.77.3c.3.05.82.11,1.56.17v.81h-9.77V39a6,6,0,0,0,2-.27,1.36,1.36,0,0,0,.87-.83,5.88,5.88,0,0,0,.2-1.79V23a10.37,10.37,0,0,0-.11-1.74,1.36,1.36,0,0,0-.42-.81,1.86,1.86,0,0,0-.83-.35c-.35-.06-.91-.13-1.68-.2ZM255,22.58V37.19a1.87,1.87,0,0,1-.26,1.1,2.87,2.87,0,0,1-.91.71,3.84,3.84,0,0,0,1.54-.32,1.25,1.25,0,0,0,.58-1.25V21.86a2.26,2.26,0,0,0-.41-1.49,2,2,0,0,0-1.62-.46,2.29,2.29,0,0,1,1.11,2.23,1.55,1.55,0,0,1,0,.22A1.8,1.8,0,0,1,255,22.58Z"/><path class="cls-1" d="M268,32.35h1a15.1,15.1,0,0,0,2,3.9,7.89,7.89,0,0,0,2.48,2.34,5.56,5.56,0,0,0,2.8.76,4.6,4.6,0,0,0,3.14-1.14,3.76,3.76,0,0,0,1.31-2.94,3.66,3.66,0,0,0-.87-2.6,4.64,4.64,0,0,0-2.06-1.31,23.86,23.86,0,0,0-3.17-.69,19.67,19.67,0,0,1-2.79-.61,6.43,6.43,0,0,1-2.17-1.21A5,5,0,0,1,268.22,27a5.79,5.79,0,0,1-.46-2.32,6.36,6.36,0,0,1,.41-2.25,6,6,0,0,1,1.16-1.93,5.58,5.58,0,0,1,1.83-1.32,5.76,5.76,0,0,1,2.39-.48,12.52,12.52,0,0,1,2.34.27,12,12,0,0,0,2,.27,3.24,3.24,0,0,0,1.5-.35h1.11l.63,6h-1a15.1,15.1,0,0,0-3-4.12,5.38,5.38,0,0,0-3.7-1.41,4.05,4.05,0,0,0-2,.49A3.89,3.89,0,0,0,270,21.25a3.52,3.52,0,0,0-.55,1.91,2.67,2.67,0,0,0,1,2.24,7,7,0,0,0,3,1.17c1.3.27,2.47.49,3.5.68a9.33,9.33,0,0,1,2.46.72,6.26,6.26,0,0,1,2.6,2.27,6,6,0,0,1,.92,3.29,6.71,6.71,0,0,1-.85,3.28,6.61,6.61,0,0,1-5.83,3.36,5.94,5.94,0,0,1-1.61-.16q-.54-.16-1.86-.63a6.75,6.75,0,0,0-2-.47,2.22,2.22,0,0,0-1.86.9H268Zm.49-9.37a8.37,8.37,0,0,0-.25,1.8,5.11,5.11,0,0,0,.26,1.57,5.69,5.69,0,0,0,.78,1.48A4.77,4.77,0,0,0,270.43,29a5.45,5.45,0,0,0,1.91.83c.69.16,1.71.35,3,.58a15.62,15.62,0,0,1,2.77.63,4.72,4.72,0,0,1,2.19,1.57,4.07,4.07,0,0,1,.78,2.48,4.88,4.88,0,0,1-.6,2.23,4.08,4.08,0,0,0,1.21-2.92,3.94,3.94,0,0,0-.89-2.72,5.41,5.41,0,0,0-2.2-1.47,23.49,23.49,0,0,0-3.59-.88l-2.33-.41A5.8,5.8,0,0,1,269.56,27a4.76,4.76,0,0,1-1.08-3.08c0-.22,0-.4,0-.55S268.47,23.1,268.48,23Zm0,12.1V39a2.28,2.28,0,0,1,.78-.72,2.57,2.57,0,0,1,1.11-.13l-.7-.85a8.76,8.76,0,0,1-.52-.8A10.17,10.17,0,0,1,268.48,35.08Zm11.06-12.22-.48-2.8a3,3,0,0,1-1,.16,4.47,4.47,0,0,1-1.15-.16,5.43,5.43,0,0,1,1,.85,12,12,0,0,1,.92,1.13A10.31,10.31,0,0,0,279.54,22.86Z"/><path class="cls-1" d="M302.82,39.81V39a8.25,8.25,0,0,0,2.06-.29,1.24,1.24,0,0,0,.8-.78,5.84,5.84,0,0,0,.2-1.85v-6.4H295.45v6.08a12.79,12.79,0,0,0,.08,1.63,1.73,1.73,0,0,0,.37.88,1.63,1.63,0,0,0,.85.48,11.58,11.58,0,0,0,1.74.25v.81h-9.8V39a11.17,11.17,0,0,0,1.62-.14,1.72,1.72,0,0,0,.9-.42,1.58,1.58,0,0,0,.45-.86,7.87,7.87,0,0,0,.12-1.56V22.26c0-.94-.21-1.55-.65-1.84a5.15,5.15,0,0,0-2.44-.51v-.8h9.8v.8a5.55,5.55,0,0,0-2.08.31,1.39,1.39,0,0,0-.8.94,10,10,0,0,0-.16,2.07V28.6h10.43V22.44a3.64,3.64,0,0,0-.25-1.58,1.3,1.3,0,0,0-.85-.67,11.46,11.46,0,0,0-2-.28v-.8h9.8v.8a7.22,7.22,0,0,0-2.08.28,1.29,1.29,0,0,0-.8.88,8.39,8.39,0,0,0-.19,2.16V36a6.93,6.93,0,0,0,.18,1.82,1.4,1.4,0,0,0,.82.9,5.2,5.2,0,0,0,2.07.26v.81ZM292.27,22.38v14a4,4,0,0,1-.29,1.79,2.46,2.46,0,0,1-.74.82h.43a1.22,1.22,0,0,0,1.19-.67,4.55,4.55,0,0,0,.35-2V23.16a13.88,13.88,0,0,0-.11-2.05,1.35,1.35,0,0,0-.51-.95,2.08,2.08,0,0,0-1.35-.25,1.74,1.74,0,0,1,.79.8A4.19,4.19,0,0,1,292.27,22.38Zm14.1-.21V36.71a3.39,3.39,0,0,1-.25,1.52,2.32,2.32,0,0,1-.81.77h.48a1.36,1.36,0,0,0,1.15-.46,2.37,2.37,0,0,0,.35-1.43V22.55a5.74,5.74,0,0,0-.26-2c-.18-.43-.61-.65-1.29-.65h-.43a1.61,1.61,0,0,1,.84.78A4,4,0,0,1,306.37,22.17Z"/><path class="cls-1" d="M108.56,53.57H109a6.73,6.73,0,0,0,.89,1.78A3.66,3.66,0,0,0,111,56.42a2.58,2.58,0,0,0,1.28.34,2.11,2.11,0,0,0,1.44-.52,1.9,1.9,0,0,0,.2-2.53,2.21,2.21,0,0,0-1-.6,12,12,0,0,0-1.44-.32,7.61,7.61,0,0,1-1.28-.27,3,3,0,0,1-1-.55,2.36,2.36,0,0,1-.62-.85,2.66,2.66,0,0,1-.21-1,3,3,0,0,1,.18-1,2.94,2.94,0,0,1,.54-.88,2.43,2.43,0,0,1,.83-.6,2.6,2.6,0,0,1,1.1-.22,6,6,0,0,1,1.07.12,4.77,4.77,0,0,0,.92.13,1.58,1.58,0,0,0,.68-.16h.51l.29,2.75h-.47a6.88,6.88,0,0,0-1.38-1.88,2.45,2.45,0,0,0-1.69-.65,1.88,1.88,0,0,0-.9.23,1.82,1.82,0,0,0-.67.62,1.64,1.64,0,0,0-.25.87,1.22,1.22,0,0,0,.46,1,3.3,3.3,0,0,0,1.35.53c.6.12,1.13.23,1.6.31a4.74,4.74,0,0,1,1.12.33,2.88,2.88,0,0,1,1.19,1,2.73,2.73,0,0,1,.42,1.5,3.1,3.1,0,0,1-.38,1.5,3,3,0,0,1-1.1,1.12,3,3,0,0,1-1.57.42,3.18,3.18,0,0,1-.73-.07l-.86-.29a3.16,3.16,0,0,0-.92-.22A1,1,0,0,0,109,57h-.39Zm.23-4.29a3.74,3.74,0,0,0-.12.83,2.25,2.25,0,0,0,.12.71,2.48,2.48,0,0,0,.36.68,2.18,2.18,0,0,0,.53.52,2.62,2.62,0,0,0,.87.38c.32.07.78.16,1.39.26a6.25,6.25,0,0,1,1.26.29,2.17,2.17,0,0,1,1,.72,1.84,1.84,0,0,1,.36,1.13,2.31,2.31,0,0,1-.28,1,1.86,1.86,0,0,0,.55-1.34,1.8,1.8,0,0,0-.4-1.24,2.59,2.59,0,0,0-1-.67,10.63,10.63,0,0,0-1.64-.4L110.72,52a2.66,2.66,0,0,1-1.44-.86,2.18,2.18,0,0,1-.49-1.41c0-.1,0-.18,0-.25A1,1,0,0,1,108.79,49.28Zm0,5.53V56.6a.84.84,0,0,1,.35-.32,1.18,1.18,0,0,1,.51-.06l-.32-.39c-.06-.08-.14-.21-.24-.37A3.67,3.67,0,0,1,108.79,54.81Zm5-5.58L113.62,48a1.35,1.35,0,0,1-.44.07,2.09,2.09,0,0,1-.53-.07,2,2,0,0,1,.47.39,4.77,4.77,0,0,1,.43.51A3.63,3.63,0,0,0,113.84,49.23Z"/><path class="cls-1" d="M122.63,47.88v-.37h4v.37a3.3,3.3,0,0,0-.92.27,5.07,5.07,0,0,0-.92.53c-.31.22-.65.49-1,.82l-1.62,1.43,3.55,4.45q.4.49.63.72a2.08,2.08,0,0,0,.48.35,2,2,0,0,0,.57.15V57h-4.5V56.6c.71,0,1.07-.16,1.07-.48a.65.65,0,0,0-.11-.34,2.82,2.82,0,0,0-.29-.4l-2.65-3.32-.84.75v2.57a1.77,1.77,0,0,0,.16.84.73.73,0,0,0,.6.33l.36,0,.25,0V57h-4.57V56.6h.21a2,2,0,0,0,.87-.14.64.64,0,0,0,.36-.4,2.72,2.72,0,0,0,.08-.71v-6.3a1.8,1.8,0,0,0-.1-.69.7.7,0,0,0-.42-.36,3.1,3.1,0,0,0-1-.12v-.37h4.57v.37h-.09a1.48,1.48,0,0,0-1,.25,1.13,1.13,0,0,0-.25.84v3.34l2.72-2.44a5.51,5.51,0,0,0,.69-.72,1.05,1.05,0,0,0,.23-.59.62.62,0,0,0-.21-.49.85.85,0,0,0-.6-.19ZM119,55.44V49.1a2,2,0,0,0-.16-1c-.11-.17-.36-.24-.78-.24a.77.77,0,0,1,.42.36,3.17,3.17,0,0,1,.09,1v6.33a1.58,1.58,0,0,1-.11.72.84.84,0,0,1-.45.34h.17a1,1,0,0,0,.58-.13.48.48,0,0,0,.21-.35A5.66,5.66,0,0,0,119,55.44Zm5.06-.41-2.71-3.4-.3.27,2.53,3.22a4.94,4.94,0,0,1,.42.58.88.88,0,0,1,.14.45.5.5,0,0,1-.33.45H124a.59.59,0,0,0,.43-.16.5.5,0,0,0,.17-.37A1.94,1.94,0,0,0,124.09,55Zm1.09-7.15h-1.57a.74.74,0,0,1,.31.58.91.91,0,0,1-.1.41c.3-.28.54-.48.72-.62A3.18,3.18,0,0,1,125.18,47.88Z"/><path class="cls-1" d="M128.65,47.51h4.47v.37a2.77,2.77,0,0,0-1,.16.65.65,0,0,0-.37.61c0,.19,0,.34,0,.45a.56.56,0,0,1,0,.14v6.18a1.75,1.75,0,0,0,.09.63.62.62,0,0,0,.23.34,1.13,1.13,0,0,0,.36.14c.13,0,.37,0,.71.07V57h-4.47V56.6a2.66,2.66,0,0,0,.91-.12.61.61,0,0,0,.39-.38,2.67,2.67,0,0,0,.09-.82v-6a4,4,0,0,0,0-.79.55.55,0,0,0-.19-.37.78.78,0,0,0-.38-.16c-.16,0-.41-.06-.77-.09Zm1.61,1.59v6.68a.84.84,0,0,1-.12.5,1.19,1.19,0,0,1-.41.32,1.55,1.55,0,0,0,.7-.14.57.57,0,0,0,.27-.57V48.77a1,1,0,0,0-.19-.68.9.9,0,0,0-.74-.21,1,1,0,0,1,.51,1,.34.34,0,0,1,0,.1A.38.38,0,0,1,130.26,49.1Z"/><path class="cls-1" d="M141.41,47.88v-.37H145v.37a1.77,1.77,0,0,0-.79.2,1.28,1.28,0,0,0-.53.55,1.76,1.76,0,0,0-.2.86l.13,7.69h-.42l-6.85-8,.1,5.39a4.91,4.91,0,0,0,.08.85,1.46,1.46,0,0,0,.24.6,1.19,1.19,0,0,0,.5.4,2.61,2.61,0,0,0,.84.19V57h-3.56V56.6a1.65,1.65,0,0,0,1-.37,1.48,1.48,0,0,0,.42-.8,6.3,6.3,0,0,0,.05-1.21L136,48.73a3.39,3.39,0,0,0-.75-.63,1.39,1.39,0,0,0-.75-.22h-.08v-.37h2.77l6,7.05-.09-4.72a3.51,3.51,0,0,0-.11-.92,1.34,1.34,0,0,0-.37-.61,1.4,1.4,0,0,0-.54-.31A1.86,1.86,0,0,0,141.41,47.88Zm1.29,7.68-6-7.05a2.62,2.62,0,0,0-.44-.44,1.22,1.22,0,0,0-.73-.19h-.3a2,2,0,0,1,.58.32c.14.13.33.35.58.64l6.89,8c0-.13,0-.26,0-.38a.88.88,0,0,0,0-.28,1.12,1.12,0,0,0-.13-.22A4.44,4.44,0,0,0,142.7,55.56Zm-7.33,1h1.41a1.65,1.65,0,0,1-.42-.42,2,2,0,0,1-.21-.54,1.52,1.52,0,0,1-.27.54A1.55,1.55,0,0,1,135.37,56.6Zm8.38-8.72h-1.46a1.56,1.56,0,0,1,.54.31,1.75,1.75,0,0,1,.36.55A1.45,1.45,0,0,1,143.75,47.88Z"/><path class="cls-1" d="M152.53,57.15a2.34,2.34,0,0,1-1.21-.31,2.31,2.31,0,0,1-.84-.86,2.27,2.27,0,0,1-.3-1.12,2.11,2.11,0,0,1,.15-.8,2.62,2.62,0,0,1,.41-.7,8.73,8.73,0,0,1,.69-.73,9.45,9.45,0,0,1,1.16-.93,3.33,3.33,0,0,1-1.1-1.88,1.43,1.43,0,0,1,.27-.75,4,4,0,0,1,.69-.83,4.29,4.29,0,0,1,.91-.66,1.91,1.91,0,0,1,.89-.25,1.45,1.45,0,0,1,.66.15,2,2,0,0,1,.51.41,2.18,2.18,0,0,1,.33.54,1.26,1.26,0,0,1,.12.51,1.15,1.15,0,0,1-.24.68,2.87,2.87,0,0,1-.53.57c-.19.16-.53.41-1,.77.52.58,1,1.13,1.34,1.63s.69,1,1,1.39a7.83,7.83,0,0,0,.75-1.14,1.91,1.91,0,0,0,.26-.81.72.72,0,0,0-.27-.56,1.13,1.13,0,0,0-.74-.22v-.37h3.23v.37a1.74,1.74,0,0,0-.93.44,6.05,6.05,0,0,0-.87,1q-.44.59-1.17,1.68l.42.63a5.69,5.69,0,0,0,.67.87.78.78,0,0,0,.54.23c.35,0,.66-.27,1-.81l.32.15a3.89,3.89,0,0,1-.55,1,2.11,2.11,0,0,1-.68.57,1.66,1.66,0,0,1-.78.19,1.62,1.62,0,0,1-1-.41,4.12,4.12,0,0,1-.93-1.1,5.68,5.68,0,0,1-1.52,1.12A3.61,3.61,0,0,1,152.53,57.15Zm.54-.27a2.73,2.73,0,0,1-1.66-.78,2.19,2.19,0,0,1-.63-1.59,1.73,1.73,0,0,1,.08-.61,7.51,7.51,0,0,1,.31-.69,4.07,4.07,0,0,0-.57.76,2,2,0,0,0,.11,1.94,2,2,0,0,0,.79.74,2.07,2.07,0,0,0,1,.27A4.18,4.18,0,0,0,153.07,56.88Zm2.29-1.57-.47-.71c-.23-.34-.42-.62-.6-.86s-.39-.51-.65-.83a12,12,0,0,0-.79-.91,5,5,0,0,0-.95,1,1.79,1.79,0,0,0-.29,1,2.06,2.06,0,0,0,.29,1,2.33,2.33,0,0,0,.77.82,1.85,1.85,0,0,0,1,.31A2.19,2.19,0,0,0,155.36,55.31Zm3.34,1.15a1.67,1.67,0,0,1-.67.16,1.51,1.51,0,0,1-.92-.3,3.42,3.42,0,0,1-.68-.69c-.19-.26-.54-.77-1.07-1.53-.39-.57-.76-1.06-1.09-1.47l-1.16-1.35a10.75,10.75,0,0,1-.9-1.12,1.4,1.4,0,0,1-.24-.72,1.59,1.59,0,0,1,.15-.51,1.55,1.55,0,0,0-.41.9,1.25,1.25,0,0,0,.24.69,11.78,11.78,0,0,0,.89,1.12c.44.5.82,1,1.16,1.35a15.72,15.72,0,0,1,1,1.43c.27.41.51.75.7,1a9.37,9.37,0,0,0,.57.76,2.21,2.21,0,0,0,.61.51,1.37,1.37,0,0,0,.69.18A1.62,1.62,0,0,0,158.7,56.46Zm-4.87-5.78c.55-.39.82-.74.82-1a1.11,1.11,0,0,0-.21-.57,2.3,2.3,0,0,0-.52-.6.9.9,0,0,0-.58-.25.85.85,0,0,0-.79.75.84.84,0,0,0,.09.37,2.38,2.38,0,0,0,.32.44l.42.45Q153.59,50.43,153.83,50.68Zm1-.89a.93.93,0,0,0,.07-1.23,1.83,1.83,0,0,0-.51-.49,1,1,0,0,0-.57-.19,1.51,1.51,0,0,0-.51.14,1.31,1.31,0,0,1,.77.32,2.23,2.23,0,0,1,.57.66,1.17,1.17,0,0,1,.22.54s0,.07,0,.09,0,0,0,.06A.87.87,0,0,0,154.83,49.79Zm3.72,1.46h-1.39a.79.79,0,0,1,.47.77.51.51,0,0,1,0,.09.34.34,0,0,0,0,.09A2.7,2.7,0,0,1,158.55,51.25Z"/><path class="cls-1" d="M171,55.32l-.75-1.91h-3.17l-.44,1.13a2.42,2.42,0,0,0-.18.91,1.2,1.2,0,0,0,.29.79,1,1,0,0,0,.79.36V57h-3.1V56.6c.69-.1,1.25-.7,1.67-1.79l2.32-5.94a1.06,1.06,0,0,0-.38-.42,1.36,1.36,0,0,0-.59-.15V48l1.61-.55h.62l3.1,7.92a2.41,2.41,0,0,0,.54.9,1.79,1.79,0,0,0,.82.36V57h-4V56.6a2.75,2.75,0,0,0,.78-.16.4.4,0,0,0,.25-.41A1.83,1.83,0,0,0,171,55.32Zm-5.85,1.28h1.29a1,1,0,0,1-.42-.82,1.28,1.28,0,0,1,0-.22,4.72,4.72,0,0,1-.36.57A3.08,3.08,0,0,1,165.15,56.6ZM167.24,53h2.84l-1.43-3.62Zm4.37,2.09L169.22,49a1.88,1.88,0,0,0-.37-.65.66.66,0,0,0-.51-.19l-.32,0a1.1,1.1,0,0,1,.49.36,2.86,2.86,0,0,1,.31.61l2.37,6.07a2.42,2.42,0,0,1,.23.84.43.43,0,0,1-.08.28,2.25,2.25,0,0,1-.29.25h.14a.66.66,0,0,0,.49-.16.54.54,0,0,0,.17-.4A3.09,3.09,0,0,0,171.61,55.07Z"/><path class="cls-1" d="M178.34,52.29v3a3,3,0,0,0,.07.76.69.69,0,0,0,.25.41,1.23,1.23,0,0,0,.54.16c.24,0,.56,0,1,0a3.66,3.66,0,0,0,1.32-.22,4,4,0,0,0,1.11-.66,10.94,10.94,0,0,0,1.13-1.18h.54L183.43,57h-8.25V56.6a3.41,3.41,0,0,0,.91-.1.76.76,0,0,0,.44-.3,1.11,1.11,0,0,0,.13-.6V49a1.47,1.47,0,0,0-.12-.69.64.64,0,0,0-.41-.29,5,5,0,0,0-.95-.11v-.37h7.92l.82,2.14h-.49a4.51,4.51,0,0,0-1-.89,5.08,5.08,0,0,0-1.25-.64,4.44,4.44,0,0,0-1.47-.24,2.37,2.37,0,0,0-.91.13.69.69,0,0,0-.41.37,1.49,1.49,0,0,0-.1.61v2.93h1.34c1.18,0,1.77-.54,1.79-1.62h.47v3.55h-.42a1.89,1.89,0,0,0-.46-1.19,1.62,1.62,0,0,0-1.15-.37ZM176.88,49V55.5a1.8,1.8,0,0,1-.11.72,1,1,0,0,1-.35.38c.38,0,.62-.1.73-.29a1.94,1.94,0,0,0,.16-.92V48.9a.75.75,0,0,0-.89-.95.81.81,0,0,1,.36.35A1.87,1.87,0,0,1,176.88,49Zm4.51,3.71V51.41a1.57,1.57,0,0,1-1,.66,2.24,2.24,0,0,1,.59.24A1.28,1.28,0,0,1,181.39,52.73Zm1.08-4.85h-1.21a4.06,4.06,0,0,1,.89.4c.26.16.54.35.83.56Zm.29,8.72.47-1.16a4.73,4.73,0,0,1-.72.64c-.22.14-.52.31-.91.52Z"/><path class="cls-1" d="M185.88,53.57h.44a7,7,0,0,0,.89,1.78,3.89,3.89,0,0,0,1.13,1.07,2.59,2.59,0,0,0,1.29.34,2.07,2.07,0,0,0,1.43-.52,1.69,1.69,0,0,0,.6-1.34,1.65,1.65,0,0,0-.4-1.19,2.17,2.17,0,0,0-.94-.6,12.24,12.24,0,0,0-1.45-.32,7.43,7.43,0,0,1-1.27-.27,3.11,3.11,0,0,1-1-.55,2.36,2.36,0,0,1-.62-.85,2.66,2.66,0,0,1-.21-1,3,3,0,0,1,.19-1,2.72,2.72,0,0,1,.53-.88,2.52,2.52,0,0,1,1.93-.82,5.9,5.9,0,0,1,1.07.12,4.88,4.88,0,0,0,.92.13,1.66,1.66,0,0,0,.69-.16h.51l.28,2.75h-.46a6.88,6.88,0,0,0-1.38-1.88,2.47,2.47,0,0,0-1.7-.65,1.87,1.87,0,0,0-1.56.85,1.55,1.55,0,0,0-.25.87,1.24,1.24,0,0,0,.45,1,3.42,3.42,0,0,0,1.35.53c.6.12,1.13.23,1.61.31a4.89,4.89,0,0,1,1.12.33,2.88,2.88,0,0,1,1.19,1,2.73,2.73,0,0,1,.42,1.5,3,3,0,0,1-.39,1.5,2.93,2.93,0,0,1-1.09,1.12,3,3,0,0,1-1.57.42,3.28,3.28,0,0,1-.74-.07l-.85-.29a3.14,3.14,0,0,0-.93-.22,1,1,0,0,0-.85.41h-.38Zm.22-4.29a3.64,3.64,0,0,0-.11.83,2.25,2.25,0,0,0,.12.71,2.74,2.74,0,0,0,.35.68A2.6,2.6,0,0,0,187,52a2.81,2.81,0,0,0,.87.38c.32.07.79.16,1.4.26a6.25,6.25,0,0,1,1.26.29,2.14,2.14,0,0,1,1,.72,1.84,1.84,0,0,1,.36,1.13,2.29,2.29,0,0,1-.27,1,1.9,1.9,0,0,0,.55-1.34,1.8,1.8,0,0,0-.41-1.24,2.49,2.49,0,0,0-1-.67,10.93,10.93,0,0,0-1.64-.4L188,52a2.66,2.66,0,0,1-1.45-.86,2.18,2.18,0,0,1-.49-1.41v-.43Zm0,5.53V56.6a.92.92,0,0,1,.36-.32,1.18,1.18,0,0,1,.51-.06l-.32-.39a2.39,2.39,0,0,1-.24-.37A4.47,4.47,0,0,1,186.1,54.81Zm5.06-5.58L190.94,48a1.41,1.41,0,0,1-.45.07A2,2,0,0,1,190,48a2,2,0,0,1,.47.39,6.38,6.38,0,0,1,.42.51C191,49.05,191.11,49.18,191.16,49.23Z"/><path class="cls-1" d="M194.59,47.51h8.52l.49,2.21h-.49A4,4,0,0,0,202,48.46,2.63,2.63,0,0,0,201,48a10.41,10.41,0,0,0-1.3-.09V55.5a1.28,1.28,0,0,0,.14.68.76.76,0,0,0,.46.32,4.5,4.5,0,0,0,.9.1V57h-4.7V56.6a3.79,3.79,0,0,0,.89-.09.73.73,0,0,0,.47-.32,1.4,1.4,0,0,0,.16-.77V47.88a5.21,5.21,0,0,0-1.26.14,3.13,3.13,0,0,0-.9.38,2.75,2.75,0,0,0-.6.5c-.16.17-.39.45-.7.82h-.41Zm1.25.37h-1.09L194.49,49a4.8,4.8,0,0,1,.6-.67A4.32,4.32,0,0,1,195.84,47.88Zm2.8,7.39V48.68a1.49,1.49,0,0,0-.09-.59.36.36,0,0,0-.34-.21V55.5a1.78,1.78,0,0,1-.1.67,1,1,0,0,1-.37.43h.14q.5,0,.63-.3A2.84,2.84,0,0,0,198.64,55.27Zm4.2-6.32-.3-1.07h-1.26a2.7,2.7,0,0,1,.85.42A4.56,4.56,0,0,1,202.84,49Z"/><path class="cls-1" d="M211.26,57V56.6a3.49,3.49,0,0,0,1-.13.58.58,0,0,0,.36-.36,2.78,2.78,0,0,0,.09-.84V52.35H207.9v2.77a6.94,6.94,0,0,0,0,.75.77.77,0,0,0,.17.4.82.82,0,0,0,.39.22,5.94,5.94,0,0,0,.79.11V57H204.8V56.6a4.28,4.28,0,0,0,.74-.06.78.78,0,0,0,.41-.19.77.77,0,0,0,.21-.4,3.22,3.22,0,0,0,.06-.71V49q0-.64-.3-.84a2.37,2.37,0,0,0-1.12-.23v-.37h4.48v.37a2.39,2.39,0,0,0-.95.14.62.62,0,0,0-.36.43,4.34,4.34,0,0,0-.07.95v2.45h4.76V49a1.8,1.8,0,0,0-.11-.72.6.6,0,0,0-.39-.3,4.16,4.16,0,0,0-.9-.13v-.37h4.48v.37a3.13,3.13,0,0,0-1,.13.56.56,0,0,0-.36.4,3.77,3.77,0,0,0-.09,1v5.84a3.33,3.33,0,0,0,.08.83.66.66,0,0,0,.38.42,2.49,2.49,0,0,0,.94.11V57Zm-4.82-8v6.4a1.8,1.8,0,0,1-.13.82,1.11,1.11,0,0,1-.34.37h.19a.56.56,0,0,0,.55-.3,2,2,0,0,0,.16-.92v-6a6.51,6.51,0,0,0-.05-.93.67.67,0,0,0-.23-.44,1,1,0,0,0-.62-.11.78.78,0,0,1,.36.36A2,2,0,0,1,206.44,49Zm6.44-.1v6.65a1.44,1.44,0,0,1-.11.69,1,1,0,0,1-.37.35h.22a.63.63,0,0,0,.52-.2,1.07,1.07,0,0,0,.17-.66V49.09a2.65,2.65,0,0,0-.12-.92.58.58,0,0,0-.59-.29h-.2a.65.65,0,0,1,.38.36A1.65,1.65,0,0,1,212.88,48.91Z"/><path class="cls-1" d="M220.16,52.29v3a3,3,0,0,0,.07.76.7.7,0,0,0,.26.41,1.15,1.15,0,0,0,.54.16q.34,0,1,0a3.66,3.66,0,0,0,1.32-.22,4,4,0,0,0,1.11-.66,10,10,0,0,0,1.14-1.18h.53L225.25,57H217V56.6a3.41,3.41,0,0,0,.91-.1.73.73,0,0,0,.44-.3,1.11,1.11,0,0,0,.13-.6V49a1.47,1.47,0,0,0-.12-.69A.64.64,0,0,0,218,48a5,5,0,0,0-.95-.11v-.37h7.93l.81,2.14h-.49a4.45,4.45,0,0,0-.94-.89,5.15,5.15,0,0,0-1.26-.64,4.43,4.43,0,0,0-1.46-.24,2.39,2.39,0,0,0-.92.13.72.72,0,0,0-.41.37,1.49,1.49,0,0,0-.1.61v2.93h1.35c1.17,0,1.77-.54,1.78-1.62h.47v3.55h-.42a1.84,1.84,0,0,0-.46-1.19,1.6,1.6,0,0,0-1.15-.37ZM218.7,49V55.5a1.64,1.64,0,0,1-.11.72,1,1,0,0,1-.34.38.77.77,0,0,0,.72-.29,1.94,1.94,0,0,0,.16-.92V48.9a1.09,1.09,0,0,0-.19-.76,1.07,1.07,0,0,0-.69-.19.84.84,0,0,1,.35.35A1.87,1.87,0,0,1,218.7,49Zm4.51,3.71V51.41a1.55,1.55,0,0,1-1,.66,2.3,2.3,0,0,1,.58.24A1.18,1.18,0,0,1,223.21,52.73Zm1.09-4.85h-1.22a3.85,3.85,0,0,1,.89.4c.26.16.54.35.83.56Zm.28,8.72.47-1.16a4.73,4.73,0,0,1-.72.64c-.21.14-.52.31-.91.52Z"/><path class="cls-1" d="M227.57,47.51h8.52l.48,2.21h-.48A4,4,0,0,0,235,48.46,2.63,2.63,0,0,0,234,48a10.41,10.41,0,0,0-1.3-.09V55.5a1.28,1.28,0,0,0,.14.68.73.73,0,0,0,.46.32,4.5,4.5,0,0,0,.9.1V57h-4.7V56.6a3.86,3.86,0,0,0,.89-.09.73.73,0,0,0,.47-.32,1.4,1.4,0,0,0,.16-.77V47.88a5.21,5.21,0,0,0-1.26.14,3.13,3.13,0,0,0-.9.38,2.75,2.75,0,0,0-.6.5c-.16.17-.39.45-.7.82h-.41Zm1.25.37h-1.09L227.47,49a4.8,4.8,0,0,1,.6-.67A4,4,0,0,1,228.82,47.88Zm2.8,7.39V48.68a1.49,1.49,0,0,0-.09-.59.36.36,0,0,0-.34-.21V55.5a1.78,1.78,0,0,1-.1.67,1,1,0,0,1-.38.43h.15c.33,0,.54-.1.62-.3A2.8,2.8,0,0,0,231.62,55.27Zm4.2-6.32-.3-1.07h-1.26a2.7,2.7,0,0,1,.85.42A4.56,4.56,0,0,1,235.82,49Z"/><path class="cls-1" d="M238,47.51h4.47v.37a2.73,2.73,0,0,0-1,.16.65.65,0,0,0-.37.61q0,.29,0,.45c0,.11,0,.15,0,.14v6.18a2.05,2.05,0,0,0,.08.63.69.69,0,0,0,.24.34,1,1,0,0,0,.36.14c.13,0,.37,0,.71.07V57H238V56.6a2.56,2.56,0,0,0,.9-.12.63.63,0,0,0,.4-.38,2.67,2.67,0,0,0,.09-.82v-6a4.92,4.92,0,0,0-.05-.79.65.65,0,0,0-.19-.37.83.83,0,0,0-.38-.16c-.16,0-.42-.06-.77-.09Zm1.61,1.59v6.68a.84.84,0,0,1-.12.5,1.15,1.15,0,0,1-.42.32,1.6,1.6,0,0,0,.71-.14c.18-.09.26-.28.26-.57V48.77a1.08,1.08,0,0,0-.18-.68.94.94,0,0,0-.75-.21,1,1,0,0,1,.51,1V49S239.56,49.06,239.56,49.1Z"/><path class="cls-1" d="M252.33,47.38h.55v3h-.42a7.76,7.76,0,0,0-.68-1.15,4.14,4.14,0,0,0-.77-.83,2.92,2.92,0,0,0-.86-.5,2.78,2.78,0,0,0-1-.17,2.6,2.6,0,0,0-1.27.32,2.73,2.73,0,0,0-1,.89,4.57,4.57,0,0,0-.63,1.41,6.78,6.78,0,0,0-.22,1.78,6,6,0,0,0,.44,2.35A3.77,3.77,0,0,0,247.77,56a3,3,0,0,0,1.81.58,3.53,3.53,0,0,0,1.2-.21,3.61,3.61,0,0,0,1.11-.62,5.81,5.81,0,0,0,1-1l.39.22a5,5,0,0,1-1.82,1.64,5.48,5.48,0,0,1-4.42.18,4.67,4.67,0,0,1-1.56-1,4.76,4.76,0,0,1-1-1.56,5.34,5.34,0,0,1,0-3.88,4.71,4.71,0,0,1,2.62-2.61,5,5,0,0,1,1.89-.36,3.88,3.88,0,0,1,.7.06,6.12,6.12,0,0,1,.77.17l.61.16a1.4,1.4,0,0,0,.37,0A1.17,1.17,0,0,0,252.33,47.38Zm-4.69.3a6,6,0,0,0-1.7.94,3.91,3.91,0,0,0-.68.73,4.11,4.11,0,0,0-.5.86,4.89,4.89,0,0,0-.32,1,5.23,5.23,0,0,0-.11,1,5.06,5.06,0,0,0,.5,2.23,4.22,4.22,0,0,0,1.48,1.69,5.08,5.08,0,0,0,2.35.83,5.52,5.52,0,0,1-1.63-.69,5.06,5.06,0,0,1-1.25-1.09A4.64,4.64,0,0,1,245,53.8a4.71,4.71,0,0,1-.25-1.55,4.8,4.8,0,0,1,.22-1.41,4.39,4.39,0,0,1,.61-1.31,6.18,6.18,0,0,1,.93-1.05A11.3,11.3,0,0,1,247.64,47.68Zm4.42,1.39,0-1.14a1.51,1.51,0,0,1-.66.14l-.32,0a5.12,5.12,0,0,1,.58.5C251.77,48.72,251.92,48.89,252.06,49.07Z"/><path class="cls-1" d="M266.87,47.38h.55v3H267a6.34,6.34,0,0,0-.68-1.15,4.14,4.14,0,0,0-.77-.83,2.82,2.82,0,0,0-1.82-.67,2.58,2.58,0,0,0-1.27.32,2.65,2.65,0,0,0-1,.89,4.57,4.57,0,0,0-.63,1.41,6.78,6.78,0,0,0-.23,1.78,5.83,5.83,0,0,0,.45,2.35A3.67,3.67,0,0,0,262.31,56a3,3,0,0,0,1.81.58,3.44,3.44,0,0,0,1.2-.21,3.77,3.77,0,0,0,1.12-.62,5.44,5.44,0,0,0,1-1l.4.22A5.06,5.06,0,0,1,266,56.61a5.2,5.2,0,0,1-2.44.56,5.1,5.1,0,0,1-2-.38A4.66,4.66,0,0,1,259,54.18a5.34,5.34,0,0,1,0-3.88,4.63,4.63,0,0,1,2.62-2.61,5,5,0,0,1,1.89-.36,3.77,3.77,0,0,1,.69.06,6.64,6.64,0,0,1,.78.17l.61.16a1.28,1.28,0,0,0,.36,0A1.14,1.14,0,0,0,266.87,47.38Zm-4.69.3a6,6,0,0,0-1.7.94,4.71,4.71,0,0,0-.68.73,5.22,5.22,0,0,0-.5.86,4.88,4.88,0,0,0-.31,1,4.57,4.57,0,0,0-.11,1,5.06,5.06,0,0,0,.49,2.23,4.24,4.24,0,0,0,1.49,1.69,5,5,0,0,0,2.34.83,5.58,5.58,0,0,1-1.62-.69,4.88,4.88,0,0,1-1.25-1.09,4.64,4.64,0,0,1-.77-1.39,4.71,4.71,0,0,1-.26-1.55,4.8,4.8,0,0,1,.22-1.41,4.41,4.41,0,0,1,.62-1.31,5.42,5.42,0,0,1,.93-1.05A10,10,0,0,1,262.18,47.68Zm4.43,1.39,0-1.14a1.52,1.52,0,0,1-.67.14l-.31,0a4.23,4.23,0,0,1,.57.5Z"/><path class="cls-1" d="M269,47.88v-.37h4.66v.37h-.2a2.82,2.82,0,0,0-.81.09.67.67,0,0,0-.39.35,1.88,1.88,0,0,0-.11.71V55.6a1.1,1.1,0,0,0,.13.59.76.76,0,0,0,.47.31,3.5,3.5,0,0,0,1,.1,5,5,0,0,0,1-.08,3.43,3.43,0,0,0,.88-.31,4.63,4.63,0,0,0,.9-.63,7.85,7.85,0,0,0,.93-1H278l-.9,2.41H269V56.6h.09a2.5,2.5,0,0,0,.89-.11.65.65,0,0,0,.39-.35,1.64,1.64,0,0,0,.11-.66V49.13a2.38,2.38,0,0,0-.09-.75A.65.65,0,0,0,270,48,3,3,0,0,0,269,47.88Zm1.69,1v6.87a.78.78,0,0,1-.47.82l.11,0h.11c.46,0,.68-.33.68-1V49.21a3.56,3.56,0,0,0-.1-1q-.1-.33-.6-.33h-.2a1,1,0,0,1,.37.35A1.52,1.52,0,0,1,270.71,48.91Zm4.55,7.69h1.23l.57-1.32a4.57,4.57,0,0,1-.81.78A4.67,4.67,0,0,1,275.26,56.6Z"/><path class="cls-1" d="M279.32,47.51h4.46v.37a2.67,2.67,0,0,0-1,.16.66.66,0,0,0-.38.61c0,.19,0,.34,0,.45a.56.56,0,0,1,0,.14v6.18a1.75,1.75,0,0,0,.09.63.59.59,0,0,0,.24.34,1,1,0,0,0,.35.14c.14,0,.37,0,.71.07V57h-4.46V56.6a2.6,2.6,0,0,0,.9-.12.61.61,0,0,0,.39-.38,2.39,2.39,0,0,0,.09-.82v-6a4,4,0,0,0-.05-.79.55.55,0,0,0-.19-.37.78.78,0,0,0-.38-.16c-.15,0-.41-.06-.76-.09Zm1.61,1.59v6.68a.84.84,0,0,1-.12.5,1.24,1.24,0,0,1-.42.32,1.55,1.55,0,0,0,.7-.14.57.57,0,0,0,.27-.57V48.77a1,1,0,0,0-.19-.68.9.9,0,0,0-.74-.21,1,1,0,0,1,.51,1V49A.31.31,0,0,0,280.93,49.1Z"/><path class="cls-1" d="M292.07,47.88v-.37h3.59v.37a1.81,1.81,0,0,0-.79.2,1.34,1.34,0,0,0-.53.55,1.76,1.76,0,0,0-.2.86l.13,7.69h-.42l-6.85-8,.1,5.39a6.15,6.15,0,0,0,.08.85,1.8,1.8,0,0,0,.24.6,1.25,1.25,0,0,0,.5.4,2.61,2.61,0,0,0,.84.19V57H285.2V56.6a1.65,1.65,0,0,0,1-.37,1.48,1.48,0,0,0,.42-.8,6.3,6.3,0,0,0,0-1.21l-.09-5.49a3.18,3.18,0,0,0-.75-.63,1.39,1.39,0,0,0-.75-.22H285v-.37h2.77l6,7.05-.09-4.72a3.51,3.51,0,0,0-.11-.92,1.26,1.26,0,0,0-.37-.61,1.4,1.4,0,0,0-.54-.31A1.86,1.86,0,0,0,292.07,47.88Zm1.3,7.68-6.05-7.05a2.29,2.29,0,0,0-.44-.44,1.22,1.22,0,0,0-.73-.19h-.3a1.84,1.84,0,0,1,.58.32c.14.13.33.35.58.64l6.89,8c0-.13,0-.26,0-.38a.88.88,0,0,0,0-.28.77.77,0,0,0-.13-.22C293.65,55.9,293.53,55.75,293.37,55.56Zm-7.34,1h1.41a2.07,2.07,0,0,1-.42-.42,2,2,0,0,1-.21-.54,1.52,1.52,0,0,1-.27.54A1.55,1.55,0,0,1,286,56.6Zm8.39-8.72H293a1.72,1.72,0,0,1,.55.31,1.58,1.58,0,0,1,.35.55A1.42,1.42,0,0,1,294.42,47.88Z"/><path class="cls-1" d="M297,47.51h4.46v.37a2.67,2.67,0,0,0-1,.16.65.65,0,0,0-.37.61q0,.29,0,.45c0,.11,0,.15,0,.14v6.18a1.78,1.78,0,0,0,.08.63.64.64,0,0,0,.24.34,1,1,0,0,0,.35.14c.14,0,.37,0,.71.07V57H297V56.6a2.56,2.56,0,0,0,.9-.12.63.63,0,0,0,.4-.38,2.67,2.67,0,0,0,.09-.82v-6a4.92,4.92,0,0,0-.05-.79.6.6,0,0,0-.2-.37.79.79,0,0,0-.37-.16c-.16,0-.42-.06-.77-.09Zm1.61,1.59v6.68a.84.84,0,0,1-.12.5,1.15,1.15,0,0,1-.42.32,1.6,1.6,0,0,0,.71-.14.59.59,0,0,0,.26-.57V48.77a1.08,1.08,0,0,0-.18-.68.94.94,0,0,0-.75-.21,1,1,0,0,1,.51,1V49S298.61,49.06,298.61,49.1Z"/><path class="cls-1" d="M311.38,47.38h.55v3h-.42a7.76,7.76,0,0,0-.68-1.15,4.14,4.14,0,0,0-.77-.83,2.92,2.92,0,0,0-.86-.5,2.78,2.78,0,0,0-1-.17A2.6,2.6,0,0,0,307,48a2.73,2.73,0,0,0-1,.89,4.57,4.57,0,0,0-.63,1.41,6.78,6.78,0,0,0-.22,1.78,6,6,0,0,0,.44,2.35A3.77,3.77,0,0,0,306.82,56a3,3,0,0,0,1.81.58,3.53,3.53,0,0,0,1.2-.21,3.61,3.61,0,0,0,1.11-.62,5.81,5.81,0,0,0,1-1l.39.22a5,5,0,0,1-1.82,1.64,5.48,5.48,0,0,1-4.42.18,4.67,4.67,0,0,1-1.56-1,4.76,4.76,0,0,1-1-1.56,5.34,5.34,0,0,1,0-3.88,4.71,4.71,0,0,1,2.62-2.61,5,5,0,0,1,1.89-.36,3.88,3.88,0,0,1,.7.06,6.64,6.64,0,0,1,.78.17l.6.16a1.4,1.4,0,0,0,.37,0A1.17,1.17,0,0,0,311.38,47.38Zm-4.69.3a6,6,0,0,0-1.7.94,4.27,4.27,0,0,0-.68.73,4.6,4.6,0,0,0-.5.86,4.89,4.89,0,0,0-.32,1,5.23,5.23,0,0,0-.11,1,5.06,5.06,0,0,0,.5,2.23,4.22,4.22,0,0,0,1.48,1.69,5.08,5.08,0,0,0,2.35.83,5.52,5.52,0,0,1-1.63-.69,5.06,5.06,0,0,1-1.25-1.09,4.87,4.87,0,0,1-.77-1.39,4.71,4.71,0,0,1-.25-1.55,4.8,4.8,0,0,1,.22-1.41,4.39,4.39,0,0,1,.61-1.31,6.18,6.18,0,0,1,.93-1.05A11.3,11.3,0,0,1,306.69,47.68Zm4.42,1.39,0-1.14a1.51,1.51,0,0,1-.66.14l-.32,0a5.12,5.12,0,0,1,.58.5C310.82,48.72,311,48.89,311.11,49.07Z"/><path class="cls-1" d="M129.15,77.88h.39a5.61,5.61,0,0,0,.78,1.55,3,3,0,0,0,1,.94,2.28,2.28,0,0,0,1.12.31,1.88,1.88,0,0,0,1.26-.46,1.65,1.65,0,0,0,.17-2.22,1.83,1.83,0,0,0-.82-.52,10.55,10.55,0,0,0-1.27-.28,6.48,6.48,0,0,1-1.12-.24,2.8,2.8,0,0,1-.87-.48,2.21,2.21,0,0,1-.54-.74,2.41,2.41,0,0,1-.18-.93,2.45,2.45,0,0,1,.63-1.67,2.18,2.18,0,0,1,.73-.53,2.25,2.25,0,0,1,1-.19,5.23,5.23,0,0,1,.93.11,5.07,5.07,0,0,0,.81.11,1.39,1.39,0,0,0,.6-.14h.44l.25,2.41H134a6,6,0,0,0-1.2-1.65,2.14,2.14,0,0,0-1.48-.56,1.65,1.65,0,0,0-.79.19,1.46,1.46,0,0,0-.58.55,1.35,1.35,0,0,0-.22.76,1.07,1.07,0,0,0,.4.9,3,3,0,0,0,1.18.47l1.4.27a4,4,0,0,1,1,.28,2.44,2.44,0,0,1,1,.91,2.39,2.39,0,0,1,.37,1.32,2.61,2.61,0,0,1-.34,1.31,2.58,2.58,0,0,1-1,1,2.64,2.64,0,0,1-1.37.36,2.55,2.55,0,0,1-.64-.06c-.15,0-.4-.13-.75-.25a2.51,2.51,0,0,0-.81-.19.88.88,0,0,0-.74.36h-.34Zm.2-3.75a3.21,3.21,0,0,0-.1.72,1.87,1.87,0,0,0,.1.62,2.14,2.14,0,0,0,.31.6,2,2,0,0,0,.47.45,2.07,2.07,0,0,0,.76.33c.28.07.68.14,1.22.23a5.37,5.37,0,0,1,1.1.26,1.75,1.75,0,0,1,.88.63,1.6,1.6,0,0,1,.31,1,2,2,0,0,1-.24.89,1.62,1.62,0,0,0,.48-1.17,1.57,1.57,0,0,0-.35-1.09,2.12,2.12,0,0,0-.88-.58,8.78,8.78,0,0,0-1.44-.36l-.93-.16a2.36,2.36,0,0,1-1.26-.75,1.91,1.91,0,0,1-.43-1.24c0-.08,0-.16,0-.21A.81.81,0,0,1,129.35,74.13Zm0,4.84v1.57a.81.81,0,0,1,.31-.29,1.22,1.22,0,0,1,.44-.06l-.28-.33-.21-.32A5.39,5.39,0,0,1,129.35,79Zm4.42-4.89L133.58,73a1.32,1.32,0,0,1-.39.06,2,2,0,0,1-.46-.06,2,2,0,0,1,.41.34c.12.13.24.28.37.45A3.37,3.37,0,0,0,133.77,74.08Z"/><path class="cls-1" d="M142.18,72.9v-.32h3.5v.32a2.9,2.9,0,0,0-.8.24,4.33,4.33,0,0,0-.8.46c-.27.19-.57.43-.91.72l-1.41,1.25,3.11,3.89a7.86,7.86,0,0,0,.55.64,1.82,1.82,0,0,0,.42.3,1.73,1.73,0,0,0,.5.14v.32h-4v-.32c.63,0,.94-.15.94-.43a.58.58,0,0,0-.09-.3,4.06,4.06,0,0,0-.25-.35l-2.33-2.9-.73.65v2.25a1.55,1.55,0,0,0,.14.73.65.65,0,0,0,.52.3l.32,0,.22,0v.32h-4v-.32h.18a1.84,1.84,0,0,0,.77-.13.56.56,0,0,0,.31-.35,2.12,2.12,0,0,0,.07-.62V73.92a1.58,1.58,0,0,0-.09-.6A.56.56,0,0,0,138,73a2.66,2.66,0,0,0-.87-.11v-.32h4v.32h-.08a1.27,1.27,0,0,0-.9.22,1,1,0,0,0-.22.73v2.92l2.38-2.13a3.73,3.73,0,0,0,.6-.63.85.85,0,0,0,.21-.52.54.54,0,0,0-.19-.42.76.76,0,0,0-.52-.17ZM139,79.51V74a1.79,1.79,0,0,0-.14-.86c-.09-.14-.32-.21-.68-.21a.71.71,0,0,1,.37.32,2.83,2.83,0,0,1,.08.85v5.54a1.49,1.49,0,0,1-.1.62.83.83,0,0,1-.4.31h.15a.83.83,0,0,0,.51-.12.47.47,0,0,0,.18-.31A4.33,4.33,0,0,0,139,79.51Zm4.43-.35-2.38-3-.26.24L143,79.24a4.42,4.42,0,0,1,.38.5.8.8,0,0,1,.12.4.46.46,0,0,1-.29.4h.15a.5.5,0,0,0,.38-.15.42.42,0,0,0,.15-.32A1.63,1.63,0,0,0,143.46,79.16Zm.95-6.26H143a.64.64,0,0,1,.28.51.87.87,0,0,1-.09.36l.63-.54A2.67,2.67,0,0,1,144.41,72.9Z"/><path class="cls-1" d="M148.17,72.58h3.91v.32a2.53,2.53,0,0,0-.85.14.57.57,0,0,0-.33.54c0,.16,0,.29,0,.39a.47.47,0,0,1,0,.12V79.5a1.6,1.6,0,0,0,.08.55.58.58,0,0,0,.21.3.77.77,0,0,0,.31.12l.62.07v.32h-3.91v-.32a2.52,2.52,0,0,0,.79-.11.57.57,0,0,0,.35-.33,2.45,2.45,0,0,0,.08-.72V74.14a3.87,3.87,0,0,0,0-.7.54.54,0,0,0-.16-.32.81.81,0,0,0-.34-.14l-.67-.08ZM149.58,74v5.84a.73.73,0,0,1-.11.44,1.13,1.13,0,0,1-.36.29,1.54,1.54,0,0,0,.62-.13.52.52,0,0,0,.23-.5V73.68a.93.93,0,0,0-.16-.6.81.81,0,0,0-.65-.18.92.92,0,0,1,.44.89v.09S149.58,73.94,149.58,74Z"/><path class="cls-1" d="M160.05,72.9v-.32h3.14v.32a1.53,1.53,0,0,0-.69.18,1.18,1.18,0,0,0-.46.48,1.46,1.46,0,0,0-.17.75L162,81h-.37l-6-7,.09,4.72a3.79,3.79,0,0,0,.07.74A1.15,1.15,0,0,0,156,80a.94.94,0,0,0,.43.35,2.29,2.29,0,0,0,.74.18v.32H154v-.32a1.56,1.56,0,0,0,.91-.33,1.26,1.26,0,0,0,.37-.7,5.6,5.6,0,0,0,.05-1.06l-.09-4.8a2.91,2.91,0,0,0-.65-.56,1.32,1.32,0,0,0-.65-.19h-.08v-.32h2.43l5.28,6.17-.08-4.13a3.12,3.12,0,0,0-.09-.81,1.14,1.14,0,0,0-.33-.53,1.39,1.39,0,0,0-.47-.28A1.83,1.83,0,0,0,160.05,72.9Zm1.14,6.72-5.29-6.17a2.35,2.35,0,0,0-.39-.38,1.06,1.06,0,0,0-.64-.17h-.26a1.37,1.37,0,0,1,.51.29,5.47,5.47,0,0,1,.51.56l6,7c0-.11,0-.22,0-.33a.65.65,0,0,0-.15-.43C161.44,79.92,161.33,79.79,161.19,79.62Zm-6.42.92H156a1.54,1.54,0,0,1-.36-.38,1.63,1.63,0,0,1-.19-.47,1.53,1.53,0,0,1-.23.48A1.71,1.71,0,0,1,154.77,80.54Zm7.34-7.64h-1.29a1.24,1.24,0,0,1,.48.28,1.33,1.33,0,0,1,.31.48A1.24,1.24,0,0,1,162.11,72.9Z"/><path class="cls-1" d="M186,72.9v-.32h4.08v.32h-.18a2.44,2.44,0,0,0-.7.08.6.6,0,0,0-.35.31,1.63,1.63,0,0,0-.1.62v5.74a.93.93,0,0,0,.12.52.67.67,0,0,0,.41.28,3.09,3.09,0,0,0,.85.09,4.46,4.46,0,0,0,.85-.08,3,3,0,0,0,.77-.27,3.87,3.87,0,0,0,.78-.55,6.55,6.55,0,0,0,.82-.89h.54l-.78,2.11H186v-.32h.08a2.45,2.45,0,0,0,.78-.1.58.58,0,0,0,.34-.31,1.5,1.5,0,0,0,.09-.58V74a1.87,1.87,0,0,0-.08-.66.55.55,0,0,0-.35-.33A2.59,2.59,0,0,0,186,72.9Zm1.48.9v6a.81.81,0,0,1-.1.45,1,1,0,0,1-.32.28h.2c.4,0,.6-.29.6-.86V74.07a2.74,2.74,0,0,0-.1-.88c-.06-.19-.23-.29-.52-.29H187a.83.83,0,0,1,.33.31A1.36,1.36,0,0,1,187.46,73.8Zm4,6.74h1.07l.51-1.16a4.16,4.16,0,0,1-.72.68A4.69,4.69,0,0,1,191.44,80.54Z"/><path class="cls-1" d="M201.08,79.41l-.66-1.67h-2.77l-.39,1a2.18,2.18,0,0,0-.15.8,1,1,0,0,0,.25.69.91.91,0,0,0,.69.32v.32h-2.72v-.32c.61-.09,1.1-.62,1.47-1.57l2-5.2a.94.94,0,0,0-.33-.37,1.43,1.43,0,0,0-.52-.14V73l1.41-.48h.54l2.71,6.93a2.31,2.31,0,0,0,.47.79,1.73,1.73,0,0,0,.72.32v.32h-3.49v-.32a2.48,2.48,0,0,0,.68-.15.35.35,0,0,0,.23-.36A1.71,1.71,0,0,0,201.08,79.41ZM196,80.54h1.13a.9.9,0,0,1-.37-.73,1,1,0,0,1,0-.19,3.62,3.62,0,0,1-.32.5A3.14,3.14,0,0,1,196,80.54Zm1.83-3.18h2.48L199,74.2Zm3.82,1.84-2.09-5.31a1.61,1.61,0,0,0-.32-.57.61.61,0,0,0-.45-.17,1.09,1.09,0,0,0-.28,0,.87.87,0,0,1,.43.31,2.36,2.36,0,0,1,.27.53l2.08,5.31a2.1,2.1,0,0,1,.19.74.38.38,0,0,1-.06.24,2.48,2.48,0,0,1-.26.23h.13a.57.57,0,0,0,.42-.15.47.47,0,0,0,.15-.35A2.64,2.64,0,0,0,201.61,79.2Z"/><path class="cls-1" d="M206,77.88h.38a6.23,6.23,0,0,0,.78,1.55,3,3,0,0,0,1,.94,2.32,2.32,0,0,0,1.13.31,1.85,1.85,0,0,0,1.25-.46A1.51,1.51,0,0,0,211,79a1.49,1.49,0,0,0-.35-1,1.86,1.86,0,0,0-.83-.52,10.12,10.12,0,0,0-1.27-.28,6.54,6.54,0,0,1-1.11-.24,2.8,2.8,0,0,1-.87-.48,2,2,0,0,1-.54-.74,2.24,2.24,0,0,1-.19-.93,2.59,2.59,0,0,1,.63-1.67,2.18,2.18,0,0,1,.73-.53,2.32,2.32,0,0,1,1-.19,5.23,5.23,0,0,1,.94.11,5.13,5.13,0,0,0,.8.11,1.39,1.39,0,0,0,.6-.14H211l.25,2.41h-.41a6,6,0,0,0-1.21-1.65,2.12,2.12,0,0,0-1.48-.56,1.61,1.61,0,0,0-.78.19,1.49,1.49,0,0,0-.59.55,1.43,1.43,0,0,0-.22.76,1.1,1.1,0,0,0,.4.9,3,3,0,0,0,1.18.47l1.41.27a4,4,0,0,1,1,.28,2.56,2.56,0,0,1,1,.91,2.47,2.47,0,0,1,.37,1.32,2.72,2.72,0,0,1-.34,1.31,2.81,2.81,0,0,1-3,1.28l-.74-.25a2.62,2.62,0,0,0-.81-.19.88.88,0,0,0-.75.36H206Zm.19-3.75a3.21,3.21,0,0,0-.1.72,1.88,1.88,0,0,0,.11.62,2.14,2.14,0,0,0,.31.6,2,2,0,0,0,.46.45,2.15,2.15,0,0,0,.76.33c.28.07.69.14,1.22.23a5.51,5.51,0,0,1,1.11.26,1.72,1.72,0,0,1,.87.63,1.61,1.61,0,0,1,.32,1,2,2,0,0,1-.24.89,1.62,1.62,0,0,0,.48-1.17,1.58,1.58,0,0,0-.36-1.09,2.06,2.06,0,0,0-.88-.58,8.62,8.62,0,0,0-1.43-.36l-.93-.16a2.39,2.39,0,0,1-1.27-.75,1.91,1.91,0,0,1-.43-1.24v-.37Zm0,4.84v1.57a.89.89,0,0,1,.31-.29,1.28,1.28,0,0,1,.45-.06l-.28-.33a3,3,0,0,1-.21-.32A3.85,3.85,0,0,1,206.14,79Zm4.43-4.89-.2-1.12A1.32,1.32,0,0,1,210,73a1.86,1.86,0,0,1-.45-.06,2.25,2.25,0,0,1,.41.34c.11.13.24.28.37.45A2.28,2.28,0,0,0,210.57,74.08Z"/><path class="cls-1" d="M216.68,76.76v2.58a2.88,2.88,0,0,0,.06.67.56.56,0,0,0,.23.35.93.93,0,0,0,.47.15c.2,0,.48,0,.84,0a3.24,3.24,0,0,0,1.16-.2,3.62,3.62,0,0,0,1-.58,9.07,9.07,0,0,0,1-1h.47l-.73,2.13h-7.23v-.32a3,3,0,0,0,.8-.1.66.66,0,0,0,.39-.26,1.07,1.07,0,0,0,.11-.53v-5.8a1.33,1.33,0,0,0-.1-.6.54.54,0,0,0-.36-.25,4.13,4.13,0,0,0-.84-.1v-.32h6.94l.71,1.87h-.42a4.43,4.43,0,0,0-.83-.78,4.38,4.38,0,0,0-1.1-.56,3.86,3.86,0,0,0-1.28-.21,2.09,2.09,0,0,0-.81.12.56.56,0,0,0-.35.32,1.32,1.32,0,0,0-.09.54v2.55h1.18q1.54,0,1.56-1.41h.41v3.11h-.36a1.59,1.59,0,0,0-.41-1,1.38,1.38,0,0,0-1-.33Zm-1.27-2.86v5.67a1.58,1.58,0,0,1-.1.63,1,1,0,0,1-.3.34c.32,0,.53-.09.63-.26a1.78,1.78,0,0,0,.14-.81V73.79A.66.66,0,0,0,215,73a.69.69,0,0,1,.3.31A1.44,1.44,0,0,1,215.41,73.9Zm3.94,3.24V76a1.32,1.32,0,0,1-.83.58,2.06,2.06,0,0,1,.51.21A1,1,0,0,1,219.35,77.14Zm1-4.24h-1.06a4.69,4.69,0,0,1,.78.35c.22.14.46.3.72.5Zm.25,7.64.41-1a3.67,3.67,0,0,1-.63.56c-.19.13-.46.28-.8.47Z"/><path class="cls-1" d="M227.63,80.86h-4.06v-.32a3.17,3.17,0,0,0,.84-.1.56.56,0,0,0,.38-.28,1.52,1.52,0,0,0,.1-.65V74a2,2,0,0,0-.09-.69.57.57,0,0,0-.36-.33,3.23,3.23,0,0,0-.87-.11v-.32h4.62a3.6,3.6,0,0,1,1.53.3,2.29,2.29,0,0,1,1,.8,2,2,0,0,1,.33,1.09,1.92,1.92,0,0,1-.15.74,2,2,0,0,1-.44.65,2.48,2.48,0,0,1-.7.51,3.46,3.46,0,0,1-.94.29,12.79,12.79,0,0,1,1,1.15l.58.68.12.13.18.21.48.56c.13.14.26.28.38.39a1.77,1.77,0,0,0,.76.46v.32h-1.1a1.58,1.58,0,0,1-.71-.17,2.5,2.5,0,0,1-.64-.47,8,8,0,0,1-.7-.81l-.83-1q-.57-.74-.84-1a.78.78,0,0,0-.49-.29h-.65v2.49a1.31,1.31,0,0,0,.1.58.56.56,0,0,0,.4.3,2.24,2.24,0,0,0,.42.08l.37,0ZM225.08,74v5.79a.78.78,0,0,1-.41.76c.52,0,.77-.21.77-.6V74a3,3,0,0,0-.05-.68.51.51,0,0,0-.23-.35,1,1,0,0,0-.54-.09.64.64,0,0,1,.38.36A2.43,2.43,0,0,1,225.08,74Zm1.26.1v2.65h.95a2.83,2.83,0,0,0,1-.16,1.76,1.76,0,0,0,.71-.39,1.81,1.81,0,0,0,.48-1.38,1.84,1.84,0,0,0-.74-1.61,1.57,1.57,0,0,0-.55-.24,3.8,3.8,0,0,0-.74-.06,1.5,1.5,0,0,0-.68.12.57.57,0,0,0-.31.37A3,3,0,0,0,226.34,74.09Zm1.53,3h-.48a3.58,3.58,0,0,1,.49.48c.19.21.42.49.7.85l.85,1.1a5,5,0,0,0,.73.77,2,2,0,0,0,.59.34,2.43,2.43,0,0,0,.56.09,2.69,2.69,0,0,1-.7-.49,5.61,5.61,0,0,1-.72-.78c-.26-.31-.52-.64-.79-1s-.56-.68-.85-1l-.14-.18A1,1,0,0,0,227.87,77.06Zm.52-.35a1.84,1.84,0,0,0,1.21-.59A1.94,1.94,0,0,0,230,74.8a2,2,0,0,0-.38-1.29,1.57,1.57,0,0,0-1.06-.57,1.91,1.91,0,0,1,.79.72,2.47,2.47,0,0,1,.26,1.21,2,2,0,0,1-.31,1.2A2.11,2.11,0,0,1,228.39,76.71Z"/><path class="cls-1" d="M260.72,80.86v-.32a3,3,0,0,0,.83-.12.52.52,0,0,0,.32-.31,2.24,2.24,0,0,0,.08-.74V76.81h-4.17v2.43a5.1,5.1,0,0,0,0,.65.6.6,0,0,0,.15.35.57.57,0,0,0,.34.19,3.53,3.53,0,0,0,.69.11v.32h-3.92v-.32a4.23,4.23,0,0,0,.65-.06.76.76,0,0,0,.36-.17.59.59,0,0,0,.18-.34,2.65,2.65,0,0,0,.05-.63v-5.5c0-.38-.08-.62-.26-.74a2.15,2.15,0,0,0-1-.2v-.32H259v.32a2.31,2.31,0,0,0-.83.12.58.58,0,0,0-.32.38,4.06,4.06,0,0,0-.06.83v2.14H262V73.91a1.42,1.42,0,0,0-.1-.63.53.53,0,0,0-.34-.27,5.26,5.26,0,0,0-.79-.11v-.32h3.92v.32a2.75,2.75,0,0,0-.82.11.54.54,0,0,0-.33.36,3.45,3.45,0,0,0-.07.86v5.11a2.65,2.65,0,0,0,.07.73.54.54,0,0,0,.33.36,2.08,2.08,0,0,0,.82.11v.32Zm-4.21-7v5.6a1.55,1.55,0,0,1-.12.72,1,1,0,0,1-.29.33h.17a.48.48,0,0,0,.47-.27,1.73,1.73,0,0,0,.14-.81V74.2a5.39,5.39,0,0,0,0-.82.61.61,0,0,0-.2-.38.88.88,0,0,0-.54-.1.73.73,0,0,1,.31.32A1.59,1.59,0,0,1,256.51,73.89Zm5.64-.09v5.82a1.27,1.27,0,0,1-.11.61.87.87,0,0,1-.32.31h.2a.51.51,0,0,0,.45-.19.88.88,0,0,0,.15-.57V74a2.24,2.24,0,0,0-.11-.8c-.07-.17-.24-.26-.52-.26h-.17a.65.65,0,0,1,.34.31A1.52,1.52,0,0,1,262.15,73.8Z"/><path class="cls-1" d="M272.06,79.41l-.66-1.67h-2.78l-.39,1a2.18,2.18,0,0,0-.15.8,1.08,1.08,0,0,0,.25.69,1,1,0,0,0,.7.32v.32h-2.72v-.32c.61-.09,1.1-.62,1.47-1.57l2-5.2a1,1,0,0,0-.34-.37,1.37,1.37,0,0,0-.51-.14V73l1.4-.48h.54l2.72,6.93a2.16,2.16,0,0,0,.47.79,1.73,1.73,0,0,0,.72.32v.32h-3.49v-.32a2.58,2.58,0,0,0,.68-.15.35.35,0,0,0,.22-.36A1.66,1.66,0,0,0,272.06,79.41Zm-5.12,1.13h1.13a.9.9,0,0,1-.37-.73,1,1,0,0,1,0-.19,4.89,4.89,0,0,1-.32.5A3.14,3.14,0,0,1,266.94,80.54Zm1.82-3.18h2.49L270,74.2Zm3.83,1.84-2.09-5.31a1.79,1.79,0,0,0-.32-.57.61.61,0,0,0-.45-.17,1,1,0,0,0-.28,0,.87.87,0,0,1,.43.31,2.87,2.87,0,0,1,.27.53l2.07,5.31a2,2,0,0,1,.2.74.38.38,0,0,1-.06.24l-.26.23h.12a.58.58,0,0,0,.43-.15.47.47,0,0,0,.15-.35A2.64,2.64,0,0,0,272.59,79.2Z"/><path class="cls-1" d="M276.65,72.58h3.91v.32a2.6,2.6,0,0,0-.86.14.56.56,0,0,0-.32.54q0,.24,0,.39a.36.36,0,0,1,0,.12V79.5a1.6,1.6,0,0,0,.08.55.52.52,0,0,0,.2.3.82.82,0,0,0,.32.12l.62.07v.32h-3.91v-.32a2.52,2.52,0,0,0,.79-.11.53.53,0,0,0,.34-.33,2.15,2.15,0,0,0,.08-.72V74.14a4.08,4.08,0,0,0,0-.7.55.55,0,0,0-.17-.32.72.72,0,0,0-.33-.14l-.67-.08ZM278.06,74v5.84a.73.73,0,0,1-.11.44,1.13,1.13,0,0,1-.36.29,1.45,1.45,0,0,0,.61-.13.51.51,0,0,0,.24-.5V73.68a.93.93,0,0,0-.17-.6.79.79,0,0,0-.65-.18.91.91,0,0,1,.45.89v.09A.28.28,0,0,0,278.06,74Z"/><path class="cls-1" d="M286.63,80.86h-4.06v-.32a3.17,3.17,0,0,0,.84-.1.54.54,0,0,0,.38-.28,1.52,1.52,0,0,0,.1-.65V74a2.31,2.31,0,0,0-.08-.69.56.56,0,0,0-.37-.33,3.23,3.23,0,0,0-.87-.11v-.32h4.63a3.66,3.66,0,0,1,1.53.3,2.32,2.32,0,0,1,1,.8,2,2,0,0,1,.33,1.09,1.92,1.92,0,0,1-.15.74,2,2,0,0,1-.44.65,2.48,2.48,0,0,1-.7.51,3.46,3.46,0,0,1-.94.29,12.79,12.79,0,0,1,1,1.15l.59.68.11.13.19.21.47.56c.13.14.26.28.38.39a2.26,2.26,0,0,0,.38.29,1.84,1.84,0,0,0,.38.17v.32h-1.1a1.58,1.58,0,0,1-.71-.17,2.5,2.5,0,0,1-.64-.47,8,8,0,0,1-.7-.81l-.82-1c-.38-.49-.67-.83-.85-1a.78.78,0,0,0-.49-.29h-.65v2.49a1.31,1.31,0,0,0,.1.58.58.58,0,0,0,.41.3,2,2,0,0,0,.41.08l.37,0ZM284.08,74v5.79a.77.77,0,0,1-.4.76c.51,0,.76-.21.76-.6V74a3.89,3.89,0,0,0,0-.68.55.55,0,0,0-.23-.35,1.05,1.05,0,0,0-.55-.09.64.64,0,0,1,.38.36A2.14,2.14,0,0,1,284.08,74Zm1.26.1v2.65h1a2.83,2.83,0,0,0,.95-.16,1.69,1.69,0,0,0,.71-.39,1.77,1.77,0,0,0,.48-1.38,1.82,1.82,0,0,0-.74-1.61,1.57,1.57,0,0,0-.55-.24,3.73,3.73,0,0,0-.74-.06,1.53,1.53,0,0,0-.68.12.59.59,0,0,0-.3.37A2.44,2.44,0,0,0,285.34,74.09Zm1.53,3h-.48a3.58,3.58,0,0,1,.49.48c.19.21.42.49.7.85s.57.73.85,1.1a5.56,5.56,0,0,0,.73.77,2,2,0,0,0,.6.34,2.34,2.34,0,0,0,.55.09,2.69,2.69,0,0,1-.7-.49,7.18,7.18,0,0,1-.72-.78c-.26-.31-.52-.64-.79-1s-.55-.68-.84-1l-.15-.18A.71.71,0,0,0,286.87,77.06Zm.52-.35a1.82,1.82,0,0,0,1.21-.59A1.94,1.94,0,0,0,289,74.8a2,2,0,0,0-.37-1.29,1.59,1.59,0,0,0-1.07-.57,1.91,1.91,0,0,1,.79.72,2.47,2.47,0,0,1,.26,1.21,1.91,1.91,0,0,1-.31,1.2A2,2,0,0,1,287.39,76.71Z"/><path class="cls-1" d="M313.7,65.39h-206a1.38,1.38,0,1,1,0-2.75h206a1.38,1.38,0,0,1,0,2.75Z"/><path class="cls-1" d="M173.74,78.19a1.55,1.55,0,1,1,1.55-1.54A1.55,1.55,0,0,1,173.74,78.19Zm0-1.71a.17.17,0,0,0-.17.17c0,.19.34.19.34,0A.17.17,0,0,0,173.74,76.48Z"/><path class="cls-1" d="M242.84,78.19a1.55,1.55,0,1,1,1.54-1.54A1.55,1.55,0,0,1,242.84,78.19Zm0-1.71a.16.16,0,0,0-.17.17c0,.19.34.19.34,0A.17.17,0,0,0,242.84,76.48Z"/><path class="cls-1" d="M50.93,1.38A48.62,48.62,0,1,1,2.3,50,48.67,48.67,0,0,1,50.93,1.38m0-1.38a50,50,0,1,0,50,50,50,50,0,0,0-50-50Z"/><path class="cls-1" d="M50.93,13.19A36.81,36.81,0,1,1,14.12,50,36.85,36.85,0,0,1,50.93,13.19m0-1.37A38.18,38.18,0,1,0,89.11,50,38.18,38.18,0,0,0,50.93,11.82Z"/><path class="cls-1" d="M96,54.86l-1.37-.15a44,44,0,0,0-5.69-26.82l1.19-.69A45.43,45.43,0,0,1,96,54.86Z"/><path class="cls-1" d="M6.71,55.23A45.6,45.6,0,0,1,12.5,27.55l1.19.69A44.31,44.31,0,0,0,9.18,39.35a43.68,43.68,0,0,0-1.1,15.72Z"/><path class="cls-1" d="M20.65,23.85l-2.16,2.52-.18-.15a2.14,2.14,0,0,0,.3-.44.4.4,0,0,0,0-.32.93.93,0,0,0-.27-.33l-3.19-2.75a.43.43,0,0,0-.45-.12,1.68,1.68,0,0,0-.53.4L14,22.51l2.27-2.62a3.32,3.32,0,0,1,1-.8,2.84,2.84,0,0,1,1.12-.33,2.74,2.74,0,0,1,1.13.15,3.08,3.08,0,0,1,1.05.6,3,3,0,0,1,.73.93,2.67,2.67,0,0,1,.27,1.11,2.89,2.89,0,0,1-.2,1.17A3.74,3.74,0,0,1,20.65,23.85Zm-2,1-2.93-2.52a1.8,1.8,0,0,0-.59-.39c-.15-.05-.3,0-.47.22a.46.46,0,0,1,.32,0,1.11,1.11,0,0,1,.36.23l3,2.63a2.59,2.59,0,0,1,.29.29.53.53,0,0,1,.11.21.55.55,0,0,1,0,.22.58.58,0,0,0,.17-.44A.75.75,0,0,0,18.64,24.83ZM16.34,22l2.57,2.2a1.89,1.89,0,0,0,.43.31.38.38,0,0,0,.34,0,1.58,1.58,0,0,0,.46-.41,3.34,3.34,0,0,0,.47-.68,2.44,2.44,0,0,0,.2-.74,2.82,2.82,0,0,0-.06-.84,2.4,2.4,0,0,0-.35-.72,3.54,3.54,0,0,0-.63-.67,2.77,2.77,0,0,0-2.27-.8,2.15,2.15,0,0,0-.82.31,3.48,3.48,0,0,0-.75.67,1,1,0,0,0-.27.5.49.49,0,0,0,.12.36A6.46,6.46,0,0,0,16.34,22Zm4.49,1.28a1.82,1.82,0,0,0,.35-1,2.14,2.14,0,0,0-.23-1.1,3.62,3.62,0,0,0-.89-1.09,4.3,4.3,0,0,0-.88-.6,3,3,0,0,0-.86-.28,1.78,1.78,0,0,0-.8.06,1.48,1.48,0,0,0-.41.17l-.38.27a2.68,2.68,0,0,1,3.17.62,3.61,3.61,0,0,1,.76.88,2.22,2.22,0,0,1,.31,1A2.75,2.75,0,0,1,20.83,23.29Z"/><path class="cls-1" d="M24.35,15.26l.39.51a3.75,3.75,0,0,1,.09-.7.61.61,0,0,1,.24-.36.45.45,0,0,1,.37-.1.5.5,0,0,1,.34.21.59.59,0,0,1,.14.39.4.4,0,0,1-.16.32.56.56,0,0,1-.17.09.51.51,0,0,1-.2,0h-.21a.13.13,0,0,0-.08,0,.22.22,0,0,0-.08.15,1.19,1.19,0,0,0,0,.24l1.24,1.6a.61.61,0,0,0,.23.21.34.34,0,0,0,.22,0,3,3,0,0,0,.37-.26l.14.18L25.4,19.17,25.26,19l.09-.07c.26-.2.31-.4.15-.61l-1.15-1.49a.7.7,0,0,0-.88-.15l-.09-.12.81-1.16Zm.11,1.48,1.16,1.51a.5.5,0,0,1,.1.19,1.83,1.83,0,0,1,0,.21.52.52,0,0,0,.19-.32.46.46,0,0,0-.14-.35l-1.08-1.4a.87.87,0,0,0-.42-.34.45.45,0,0,0-.41.11.22.22,0,0,0-.07.07l-.07.06A.68.68,0,0,1,24.46,16.74ZM25,15.6a.48.48,0,0,1,.22-.08.73.73,0,0,0,.47-.1c.12-.09.14-.23.08-.42a.42.42,0,0,1-.1.15.4.4,0,0,1-.25.09.34.34,0,0,0-.42.36Z"/><path class="cls-1" d="M30.79,14.33a.51.51,0,0,1,.4-.05.54.54,0,0,1,.32.25.54.54,0,0,1,.07.27.5.5,0,0,1-.08.27.39.39,0,0,1-.18.18.47.47,0,0,1-.4.05A.55.55,0,0,1,30.6,15a.49.49,0,0,1-.05-.39A.46.46,0,0,1,30.79,14.33Zm.51.73a.81.81,0,0,1-.2-.08.38.38,0,0,1-.14-.16.4.4,0,0,1-.07-.2.53.53,0,0,1,.05-.2l-.09,0a.38.38,0,0,0-.17.22.42.42,0,0,0,0,.29.32.32,0,0,0,.22.17.36.36,0,0,0,.27,0Z"/><path class="cls-1" d="M43.63,9.61l-.71-1.08L41,8.93l-.12.75a1.42,1.42,0,0,0,0,.58.77.77,0,0,0,.28.45.67.67,0,0,0,.53.12l0,.22-1.9.4,0-.23c.41-.15.68-.58.8-1.31L41.24,6A.73.73,0,0,0,41,5.77a1.1,1.1,0,0,0-.38,0l0-.2L41.45,5l.37-.08,2.9,4.46a1.69,1.69,0,0,0,.45.49,1.15,1.15,0,0,0,.54.11l0,.23-2.44.5,0-.22a2,2,0,0,0,.45-.2.27.27,0,0,0,.11-.29A1.41,1.41,0,0,0,43.63,9.61Zm-3.42,1.52L41,11a.63.63,0,0,1-.36-.45.42.42,0,0,1,0-.14,2.42,2.42,0,0,1-.16.39A1.69,1.69,0,0,1,40.21,11.13ZM44,9.38,41.74,6a1.16,1.16,0,0,0-.31-.36.47.47,0,0,0-.34-.05l-.19.06a.63.63,0,0,1,.35.16,2,2,0,0,1,.26.33l2.22,3.41A1.6,1.6,0,0,1,44,10a.33.33,0,0,1,0,.18l-.15.19h.09a.38.38,0,0,0,.27-.17.31.31,0,0,0,.06-.26A2,2,0,0,0,44,9.38ZM41,8.65l1.74-.36-1.33-2Z"/><path class="cls-1" d="M49.31,7.85h.28A4.41,4.41,0,0,0,50.13,9a2.24,2.24,0,0,0,.7.68,1.56,1.56,0,0,0,.8.22,1.3,1.3,0,0,0,.9-.31,1.07,1.07,0,0,0,.38-.84A1,1,0,0,0,52.67,8a1.25,1.25,0,0,0-.58-.38,6.61,6.61,0,0,0-.91-.21,5.38,5.38,0,0,1-.79-.18,2,2,0,0,1-.62-.35,1.41,1.41,0,0,1-.38-.53,1.67,1.67,0,0,1-.13-.67A2,2,0,0,1,49.39,5a1.79,1.79,0,0,1,.33-.55A1.61,1.61,0,0,1,50.94,4a3,3,0,0,1,.66.09,3.79,3.79,0,0,0,.58.08.94.94,0,0,0,.43-.1h.32l.16,1.73H52.8A4.4,4.4,0,0,0,52,4.58a1.53,1.53,0,0,0-1.06-.41,1.18,1.18,0,0,0-.56.13,1.21,1.21,0,0,0-.42.39.93.93,0,0,0-.16.54.75.75,0,0,0,.27.64,2.05,2.05,0,0,0,.85.35l1,.2a3.48,3.48,0,0,1,.7.21,1.8,1.8,0,0,1,.73.66,1.77,1.77,0,0,1,.26.94,1.92,1.92,0,0,1-.26.94,1.76,1.76,0,0,1-.69.69,1.91,1.91,0,0,1-1,.25,1.72,1.72,0,0,1-.46,0c-.1,0-.28-.09-.53-.19a2.24,2.24,0,0,0-.58-.14.64.64,0,0,0-.53.26h-.24Zm.16-2.67a3,3,0,0,0-.07.51,1.42,1.42,0,0,0,.29.87,1,1,0,0,0,.33.33,1.48,1.48,0,0,0,.54.25l.87.17a3.61,3.61,0,0,1,.78.19,1.35,1.35,0,0,1,.63.45,1.15,1.15,0,0,1,.21.71,1.39,1.39,0,0,1-.18.64,1.19,1.19,0,0,0,.36-.83A1.13,1.13,0,0,0,53,7.69a1.61,1.61,0,0,0-.62-.43,6.59,6.59,0,0,0-1-.26l-.66-.13a1.62,1.62,0,0,1-.9-.54,1.4,1.4,0,0,1-.3-.88V5.18Zm0,3.45V9.75a.65.65,0,0,1,.22-.2.73.73,0,0,1,.32,0l-.19-.25A2.33,2.33,0,0,1,49.63,9,3.3,3.3,0,0,1,49.44,8.63Zm3.19-3.46-.13-.8a.86.86,0,0,1-.27,0,1.39,1.39,0,0,1-.33,0,1.37,1.37,0,0,1,.29.24,3.47,3.47,0,0,1,.26.33Z"/><path class="cls-1" d="M61,11.27l.06-.22a2.54,2.54,0,0,0,.59.06.36.36,0,0,0,.27-.17,1.32,1.32,0,0,0,.18-.5l.43-1.77L59.62,8l-.41,1.68a3.55,3.55,0,0,0-.09.46.55.55,0,0,0,0,.27.44.44,0,0,0,.21.19l.46.19,0,.22-2.72-.66,0-.22.46.07a.61.61,0,0,0,.28-.06A.42.42,0,0,0,58,9.9a1.7,1.7,0,0,0,.14-.42l.93-3.82A.62.62,0,0,0,59,5.1a1.46,1.46,0,0,0-.64-.3l.05-.23,2.72.66-.05.23a1.56,1.56,0,0,0-.6-.06.42.42,0,0,0-.29.21,2.44,2.44,0,0,0-.18.56l-.36,1.49,2.9.71L63,6.65a1.1,1.1,0,0,0,0-.45.39.39,0,0,0-.2-.24,2.69,2.69,0,0,0-.52-.21l0-.23,2.72.66,0,.23a2.22,2.22,0,0,0-.6-.07.39.39,0,0,0-.28.19,3,3,0,0,0-.2.59l-.86,3.55a2.57,2.57,0,0,0-.07.52.44.44,0,0,0,.17.31,1.56,1.56,0,0,0,.56.21l-.06.22ZM59.22,5.73l-.94,3.88a1.1,1.1,0,0,1-.2.48.64.64,0,0,1-.26.18l.12,0a.35.35,0,0,0,.38-.11,1.26,1.26,0,0,0,.23-.53L59.43,6a4.8,4.8,0,0,0,.11-.57.41.41,0,0,0-.08-.3A.55.55,0,0,0,59.1,5a.49.49,0,0,1,.17.28A1.32,1.32,0,0,1,59.22,5.73Zm3.93.88-1,4a.93.93,0,0,1-.18.41.69.69,0,0,1-.27.16l.13,0a.4.4,0,0,0,.35-.05.71.71,0,0,0,.2-.38l1-4a1.6,1.6,0,0,0,.06-.57c0-.13-.12-.22-.31-.27l-.12,0a.41.41,0,0,1,.18.27A1.12,1.12,0,0,1,63.15,6.61Z"/><path class="cls-1" d="M69.44,8,72,9.15l-.1.21a1.54,1.54,0,0,0-.59-.17.4.4,0,0,0-.38.24l-.13.24c0,.07-.05.09-.05.08l-1.66,3.49a1.17,1.17,0,0,0-.12.38.39.39,0,0,0,0,.25.52.52,0,0,0,.16.17l.39.24-.1.21-2.52-1.2.1-.21a1.71,1.71,0,0,0,.54.17.39.39,0,0,0,.32-.1,1.9,1.9,0,0,0,.27-.44l1.61-3.38a3,3,0,0,0,.19-.46.32.32,0,0,0,0-.26.44.44,0,0,0-.17-.19,3,3,0,0,0-.41-.26Zm.48,1.33-1.79,3.77a.6.6,0,0,1-.21.25.8.8,0,0,1-.32.07,1,1,0,0,0,.44.1c.12,0,.22-.08.3-.25l1.92-4a.61.61,0,0,0,.07-.44c0-.12-.15-.22-.36-.31a.65.65,0,0,1,0,.71l0,.05Z"/><path class="cls-1" d="M74,14.7l.22.16A4.53,4.53,0,0,0,74,16.09a2.35,2.35,0,0,0,.18,1,1.66,1.66,0,0,0,.53.64,1.27,1.27,0,0,0,.91.27,1.18,1.18,0,0,0,1-1.21,1.42,1.42,0,0,0-.26-.65,7.92,7.92,0,0,0-.62-.69,5.19,5.19,0,0,1-.54-.61,1.77,1.77,0,0,1-.3-.64,1.47,1.47,0,0,1,0-.66,1.61,1.61,0,0,1,.28-.61,1.72,1.72,0,0,1,.48-.45,1.62,1.62,0,0,1,.59-.25,1.38,1.38,0,0,1,.64,0,1.74,1.74,0,0,1,.64.29,3.9,3.9,0,0,1,.49.46,3.42,3.42,0,0,0,.42.4,1,1,0,0,0,.41.17l.25.19-.86,1.5L78.08,15a4.09,4.09,0,0,0,0-1.45,1.5,1.5,0,0,0-.61-1,1.26,1.26,0,0,0-.54-.22,1.1,1.1,0,0,0-.57.07,1,1,0,0,0-.44.34.75.75,0,0,0-.15.69,2.17,2.17,0,0,0,.48.77c.26.28.49.53.7.74a2.77,2.77,0,0,1,.45.58,1.89,1.89,0,0,1,.22,1,1.76,1.76,0,0,1-.34.91,2,2,0,0,1-.75.62,1.88,1.88,0,0,1-1,.16,1.78,1.78,0,0,1-.94-.37,2,2,0,0,1-.35-.3l-.32-.46a1.88,1.88,0,0,0-.39-.45.65.65,0,0,0-.58-.11l-.2-.14Zm-.35.71-.66.9a.92.92,0,0,1,.31,0,.81.81,0,0,1,.27.16c0-.15,0-.25,0-.31s0-.16,0-.28A3.51,3.51,0,0,1,73.68,15.41Zm2-2.8a2.53,2.53,0,0,0-.37.38,1.66,1.66,0,0,0-.2.4,1.92,1.92,0,0,0-.07.48,1.39,1.39,0,0,0,.08.46,1.9,1.9,0,0,0,.3.51c.13.15.34.37.61.64a4.61,4.61,0,0,1,.53.61,1.3,1.3,0,0,1,.24.73,1.12,1.12,0,0,1-.23.71,1.38,1.38,0,0,1-.52.41,1.12,1.12,0,0,0,.77-.47,1.07,1.07,0,0,0,.25-.78,1.46,1.46,0,0,0-.26-.71,6.34,6.34,0,0,0-.68-.8l-.47-.49a1.62,1.62,0,0,1-.41-1,1.32,1.32,0,0,1,.27-.89.62.62,0,0,1,.09-.12A.36.36,0,0,1,75.72,12.61Zm2.57,1.84.36-.73a.75.75,0,0,1-.25-.13,1.28,1.28,0,0,1-.24-.23,1.33,1.33,0,0,1,.09.37,2.58,2.58,0,0,1,0,.42A2.12,2.12,0,0,0,78.29,14.45Z"/><path class="cls-1" d="M81.51,24.2l.17-.15a2.41,2.41,0,0,0,.46.39.34.34,0,0,0,.31,0,1.8,1.8,0,0,0,.44-.31L84.27,23l-2-2.24L81,21.86a2.81,2.81,0,0,0-.34.32.45.45,0,0,0-.12.25.48.48,0,0,0,.06.27,3.37,3.37,0,0,0,.27.42l-.17.15-1.84-2.11L79,21a3,3,0,0,0,.33.32.55.55,0,0,0,.26.12.39.39,0,0,0,.27-.07,2,2,0,0,0,.36-.26l3-2.59a.59.59,0,0,0,.27-.48,1.48,1.48,0,0,0-.35-.62l.17-.16,1.84,2.11-.17.16a1.42,1.42,0,0,0-.46-.39.36.36,0,0,0-.35,0,3.22,3.22,0,0,0-.47.35l-1.16,1,2,2.25,1.32-1.16a1,1,0,0,0,.3-.35.38.38,0,0,0,0-.31,2.78,2.78,0,0,0-.31-.47l.18-.15,1.84,2.11-.18.15a2,2,0,0,0-.45-.4.34.34,0,0,0-.34,0,2.46,2.46,0,0,0-.5.36l-2.75,2.4a2.34,2.34,0,0,0-.36.38.43.43,0,0,0,0,.35,1.48,1.48,0,0,0,.33.49l-.17.15Zm1.77-5.54-3,2.63a1.05,1.05,0,0,1-.44.27.54.54,0,0,1-.31,0l.08.09a.35.35,0,0,0,.37.13,1.26,1.26,0,0,0,.5-.3L83.29,19a4.18,4.18,0,0,0,.42-.41.38.38,0,0,0,.11-.29.63.63,0,0,0-.2-.33.5.5,0,0,1,0,.32A1.34,1.34,0,0,1,83.28,18.66Zm2.69,3-3.13,2.73a1,1,0,0,1-.37.23.61.61,0,0,1-.32,0l.09.1a.37.37,0,0,0,.32.16.65.65,0,0,0,.37-.19l3.13-2.73a1.64,1.64,0,0,0,.38-.43.35.35,0,0,0-.1-.4L86.26,21a.44.44,0,0,1,0,.32A1.22,1.22,0,0,1,86,21.66Z"/><path class="cls-1" d="M8.11,60.54l.05.17a2.66,2.66,0,0,0-.6.54,1.43,1.43,0,0,0-.29.56,1,1,0,0,0,0,.54.86.86,0,0,0,.36.51.72.72,0,0,0,.59.08.66.66,0,0,0,.42-.28.84.84,0,0,0,.14-.43,5.12,5.12,0,0,0,0-.61,2.79,2.79,0,0,1,0-.53,1.24,1.24,0,0,1,.11-.44.88.88,0,0,1,.26-.34,1,1,0,0,1,.39-.2,1.24,1.24,0,0,1,.43,0,1.15,1.15,0,0,1,.4.12,1,1,0,0,1,.53.66,2.14,2.14,0,0,1,.07.43,2.06,2.06,0,0,0,0,.38.69.69,0,0,0,.14.25l.05.2-1,.41,0-.18a3,3,0,0,0,.58-.75,1,1,0,0,0,.07-.73.78.78,0,0,0-.19-.33.63.63,0,0,0-.31-.19.67.67,0,0,0-.37,0,.49.49,0,0,0-.35.3,1.26,1.26,0,0,0-.06.58c0,.25,0,.47.05.66a1.9,1.9,0,0,1,0,.48,1.26,1.26,0,0,1-.28.58,1.36,1.36,0,0,1-.54.33,1.34,1.34,0,0,1-.63,0A1.11,1.11,0,0,1,7.46,63a1.26,1.26,0,0,1-.34-.57,1.35,1.35,0,0,1,0-.29c0-.07,0-.19,0-.37a1.06,1.06,0,0,0,0-.38.41.41,0,0,0-.25-.29l0-.15Zm-.46.22L7,61a.62.62,0,0,1,.17.11.5.5,0,0,1,.07.19l.12-.17L7.43,61A1.51,1.51,0,0,1,7.65,60.76Zm2.16-.6a1.34,1.34,0,0,0-.33,0,1.11,1.11,0,0,0-.27.13.87.87,0,0,0-.22.21.76.76,0,0,0-.15.26,1,1,0,0,0-.05.39,5.49,5.49,0,0,0,.05.57,3.65,3.65,0,0,1,0,.53.84.84,0,0,1-.17.47.85.85,0,0,1-.4.26.78.78,0,0,1-.43,0,.81.81,0,0,0,1-.22A1,1,0,0,0,9,62.33a3.26,3.26,0,0,0,0-.68c0-.29,0-.43,0-.44a1.05,1.05,0,0,1,.18-.66.9.9,0,0,1,.5-.35l.09,0Zm.58,2,.47-.23a.46.46,0,0,1-.07-.16.78.78,0,0,1,0-.22,1.22,1.22,0,0,1-.1.23,2.39,2.39,0,0,1-.16.22A.91.91,0,0,0,10.39,62.13Z"/><path class="cls-1" d="M12.61,66.61l.14-.06.64,1.5-.14.06a1.32,1.32,0,0,0-.24-.3,3.18,3.18,0,0,0-.35-.26c-.13-.08-.29-.16-.47-.25l-.79-.38-1.1,2a2.64,2.64,0,0,0-.17.35.68.68,0,0,0-.05.23,1.05,1.05,0,0,0,0,.24l-.14.06-.72-1.69.14-.05c.12.26.23.37.35.32a.21.21,0,0,0,.11-.1.83.83,0,0,0,.11-.17l.81-1.52-.41-.19-1,.41a.76.76,0,0,0-.29.19.32.32,0,0,0,0,.28,1.21,1.21,0,0,1,.05.14l0,.1L9,67.62l-.73-1.71.14-.06,0,.08a.82.82,0,0,0,.19.3.27.27,0,0,0,.21.07,1.5,1.5,0,0,0,.27-.08l2.36-1a.66.66,0,0,0,.24-.15.28.28,0,0,0,.07-.21,1.48,1.48,0,0,0-.12-.39l.14-.06.73,1.71-.14.06v0c-.09-.2-.17-.31-.26-.35a.46.46,0,0,0-.35,0l-1.25.53,1.34.63a2.67,2.67,0,0,0,.38.14.45.45,0,0,0,.26,0,.24.24,0,0,0,.15-.16.33.33,0,0,0,0-.25Zm-3.39-.14,2.36-1a.72.72,0,0,0,.34-.21q.08-.1,0-.33a.29.29,0,0,1-.07.21,1.09,1.09,0,0,1-.35.19l-2.36,1a.66.66,0,0,1-.29.07.31.31,0,0,1-.2-.11l0,.06a.41.41,0,0,0,.14.2.2.2,0,0,0,.17,0Zm.95,1.83L11,66.74l-.15-.07-.8,1.46a1.09,1.09,0,0,1-.15.25.43.43,0,0,1-.14.13.21.21,0,0,1-.22-.05l0,.06a.26.26,0,0,0,.13.14.25.25,0,0,0,.17,0A.71.71,0,0,0,10.17,68.3ZM13,67.57,12.77,67a.33.33,0,0,1-.17.21.43.43,0,0,1-.17,0c.15.07.27.12.35.17A.94.94,0,0,1,13,67.57Z"/><path class="cls-1" d="M14.41,70l.9,1.58-.13.07a.94.94,0,0,0-.26-.31.26.26,0,0,0-.28,0l-.17.08-.05,0-2.18,1.25a.56.56,0,0,0-.2.16A.21.21,0,0,0,12,73a.26.26,0,0,0,0,.15l.12.27-.13.07-.91-1.57.13-.08a1.43,1.43,0,0,0,.23.3.29.29,0,0,0,.21.06A1,1,0,0,0,12,72l2.11-1.21a2.07,2.07,0,0,0,.27-.18.24.24,0,0,0,.09-.14.31.31,0,0,0,0-.16,2.28,2.28,0,0,0-.12-.29Zm-.24.89L11.82,72.2a.3.3,0,0,1-.2.06.4.4,0,0,1-.2-.08.86.86,0,0,0,.19.22.23.23,0,0,0,.26,0l2.51-1.44a.44.44,0,0,0,.2-.21c0-.07,0-.17-.08-.3a.43.43,0,0,1-.25.39.05.05,0,0,0,0,0Z"/><path class="cls-1" d="M17.82,75.47l.12-.09.87,1.17-.12.09a.86.86,0,0,0-.26-.21.61.61,0,0,0-.3,0,.81.81,0,0,0-.33.15l-2.48,1.9-.1-.13,1-4.18-1.73,1.34a1.56,1.56,0,0,0-.26.23.9.9,0,0,0-.14.22.57.57,0,0,0,0,.26,1.12,1.12,0,0,0,.14.33l-.12.09-.86-1.17.12-.09a.66.66,0,0,0,.37.25.6.6,0,0,0,.37-.06,2.16,2.16,0,0,0,.4-.27l1.77-1.36a1.43,1.43,0,0,0,0-.4.57.57,0,0,0-.11-.29l0,0,.12-.09.67.9-.84,3.68,1.52-1.17a1.35,1.35,0,0,0,.27-.26A.52.52,0,0,0,18,76a.57.57,0,0,0,0-.25A.83.83,0,0,0,17.82,75.47Zm-4.31.14.34.47a1,1,0,0,1,0-.24.52.52,0,0,1,.13-.2.77.77,0,0,1-.25,0A.54.54,0,0,1,13.51,75.61Zm2.12,2.14.84-3.67a1.07,1.07,0,0,0,0-.25.53.53,0,0,0-.11-.29l-.08-.1a.73.73,0,0,1,0,.27,3,3,0,0,1-.07.35l-1,4.19.12-.1a.29.29,0,0,0,.08-.08.51.51,0,0,0,0-.1A1.87,1.87,0,0,0,15.63,77.75Zm2.76-1.51L18,75.76a.57.57,0,0,1,0,.25.63.63,0,0,1-.09.25A.56.56,0,0,1,18.39,76.24Z"/><path class="cls-1" d="M20.12,83.54a.91.91,0,0,1-.29-.42,1,1,0,0,1,.18-.91,1,1,0,0,1,.58-.31,4.1,4.1,0,0,1,.41,0,2.94,2.94,0,0,1,.6,0,1.38,1.38,0,0,1,.17-.87.58.58,0,0,1,.28-.16,1.93,1.93,0,0,1,.44-.07,1.64,1.64,0,0,1,.45,0,.83.83,0,0,1,.34.16.73.73,0,0,1,.16.23.75.75,0,0,1,0,.26.69.69,0,0,1,0,.25.67.67,0,0,1-.1.19.47.47,0,0,1-.26.14,1.09,1.09,0,0,1-.31,0l-.51,0c0,.33,0,.61,0,.87s-.05.47-.08.68a2.63,2.63,0,0,0,.53-.15.81.81,0,0,0,.3-.18.25.25,0,0,0,.06-.24.49.49,0,0,0-.16-.27l.1-.11,1,.87-.09.11a.78.78,0,0,0-.41-.11,1.63,1.63,0,0,0-.52.06l-.81.2,0,.3a2,2,0,0,0,0,.45.32.32,0,0,0,.1.21c.11.09.27.1.51,0l.06.13a1.58,1.58,0,0,1-.43.15,1.08,1.08,0,0,1-.36,0,.59.59,0,0,1-.29-.16.65.65,0,0,1-.21-.4,1.68,1.68,0,0,1,0-.59,2.12,2.12,0,0,1-.76-.07A1.28,1.28,0,0,1,20.12,83.54Zm.23.06a1.11,1.11,0,0,1-.29-.68.85.85,0,0,1,.23-.65.7.7,0,0,1,.19-.17l.28-.12a1.43,1.43,0,0,0-.38.07.89.89,0,0,0-.49.62.92.92,0,0,0,0,.44.81.81,0,0,0,.24.35A1.41,1.41,0,0,0,20.35,83.6Zm1.12.14c0-.07,0-.18.05-.34s0-.31.05-.42,0-.26,0-.43v-.49a2.22,2.22,0,0,0-.57,0,.8.8,0,0,0-.35.22.79.79,0,0,0-.19.4,1,1,0,0,0,0,.45.77.77,0,0,0,.22.37A.88.88,0,0,0,21.47,83.74ZM22.18,85a.66.66,0,0,1-.25-.14.56.56,0,0,1-.19-.33,1.29,1.29,0,0,1,0-.39c0-.13,0-.38.09-.76s.05-.52.06-.74,0-.45,0-.72a3.82,3.82,0,0,1,0-.58A.55.55,0,0,1,22,81a.42.42,0,0,1,.18-.11.58.58,0,0,0-.37.16.66.66,0,0,0-.11.28,3.82,3.82,0,0,0,0,.58c0,.26,0,.51,0,.72a6.78,6.78,0,0,1-.07.71c0,.2-.05.37-.06.51a2.87,2.87,0,0,0,0,.39,1.07,1.07,0,0,0,0,.32.78.78,0,0,0,.16.24A.69.69,0,0,0,22.18,85Zm.07-3.07a.63.63,0,0,0,.53-.1.5.5,0,0,0,.09-.23.86.86,0,0,0,0-.32.34.34,0,0,0-.11-.23.27.27,0,0,0-.23-.07.26.26,0,0,0-.21.08.37.37,0,0,0-.07.14.72.72,0,0,0,0,.22v.25A2,2,0,0,1,22.25,81.92Zm.54,0a.4.4,0,0,0,.26-.13.54.54,0,0,0,.1-.23.65.65,0,0,0,0-.28.42.42,0,0,0-.12-.22.67.67,0,0,0-.19-.09.54.54,0,0,1,.15.3,1.08,1.08,0,0,1,0,.36.48.48,0,0,1-.08.22l0,0h0Zm.74,1.44L23.11,83a.31.31,0,0,1-.06.36l0,0s0,0,0,0A1.12,1.12,0,0,1,23.53,83.36Z"/><path class="cls-1" d="M29.24,89.19l.12-.83-1.12-.64-.38.31a1.16,1.16,0,0,0-.25.29.5.5,0,0,0-.06.34.44.44,0,0,0,.21.28l-.07.13-1.1-.62.08-.13c.26.1.58,0,.95-.3l2-1.62a.61.61,0,0,0-.05-.23,1,1,0,0,0-.18-.17l.06-.12.68.13.22.13-.5,3.42a.8.8,0,0,0,0,.42.66.66,0,0,0,.21.3l-.07.13-1.41-.81.08-.13a1,1,0,0,0,.3.1.17.17,0,0,0,.18-.09A.81.81,0,0,0,29.24,89.19Zm-2.32-.73.45.26a.4.4,0,0,1,0-.37l.05-.08-.24.13A1.06,1.06,0,0,1,26.92,88.46Zm1.47-.86,1,.58.23-1.57Zm1.11,1.63.39-2.63a.74.74,0,0,0,0-.3.28.28,0,0,0-.15-.17.34.34,0,0,0-.11,0,.4.4,0,0,1,.1.22,1.4,1.4,0,0,1,0,.28l-.39,2.62a1,1,0,0,1-.09.34.22.22,0,0,1-.09.08l-.15,0,.05,0a.27.27,0,0,0,.21,0,.25.25,0,0,0,.14-.11A1.32,1.32,0,0,0,29.5,89.23Z"/><path class="cls-1" d="M34,90.11l-.45,1.11a1.21,1.21,0,0,0-.09.3.3.3,0,0,0,0,.19.54.54,0,0,0,.18.14A3.36,3.36,0,0,0,34,92a1.31,1.31,0,0,0,.53.12,1.38,1.38,0,0,0,.52-.08,3.26,3.26,0,0,0,.61-.26l.2.08-.69.79-3.1-1.27.05-.14a2,2,0,0,0,.36.1.28.28,0,0,0,.21,0,.38.38,0,0,0,.14-.2l1-2.5a.64.64,0,0,0,0-.27.24.24,0,0,0-.1-.18,3.06,3.06,0,0,0-.34-.18l0-.14,3,1.22,0,.93-.18-.08a2.05,2.05,0,0,0-.22-.48,2.06,2.06,0,0,0-.89-.75,1,1,0,0,0-.37-.09.29.29,0,0,0-.21.08.51.51,0,0,0-.13.21L34,90l.51.21a.62.62,0,0,0,.92-.34l.17.08-.54,1.33-.16-.06a.77.77,0,0,0,0-.52.66.66,0,0,0-.38-.32Zm0-1.45-1,2.43a.74.74,0,0,1-.15.26.56.56,0,0,1-.19.09.35.35,0,0,0,.32,0,.76.76,0,0,0,.2-.32l1-2.44a.43.43,0,0,0,0-.32.45.45,0,0,0-.23-.18.31.31,0,0,1,.08.19A.84.84,0,0,1,33.91,88.66Zm1,3.75.36-.36a2.08,2.08,0,0,1-.37.13,3,3,0,0,1-.42,0ZM35,90.75l.21-.5a.62.62,0,0,1-.46.1.76.76,0,0,1,.18.18A.48.48,0,0,1,35,90.75Zm1.16-1.66-.46-.19a2.51,2.51,0,0,1,.28.29l.22.34Z"/><path class="cls-1" d="M38.14,92.2l.18,0a2.63,2.63,0,0,0,.16.79,1.45,1.45,0,0,0,.33.54,1.08,1.08,0,0,0,.46.27.83.83,0,0,0,.62,0,.7.7,0,0,0,.38-.46.72.72,0,0,0,0-.51.92.92,0,0,0-.31-.34,5.06,5.06,0,0,0-.53-.27,4.19,4.19,0,0,1-.47-.25,1.12,1.12,0,0,1-.33-.32.81.81,0,0,1-.15-.4.79.79,0,0,1,0-.43,1,1,0,0,1,.18-.39,1,1,0,0,1,.3-.29,1.07,1.07,0,0,1,.39-.14.87.87,0,0,1,.45,0,2,2,0,0,1,.41.16,1.76,1.76,0,0,0,.35.14.53.53,0,0,0,.28,0l.2.06-.18,1.11-.18-.05a2.69,2.69,0,0,0-.34-.88,1,1,0,0,0-.6-.44.92.92,0,0,0-.37,0,.67.67,0,0,0-.33.18.63.63,0,0,0-.19.31.47.47,0,0,0,.07.45,1.23,1.23,0,0,0,.47.36l.6.29a1.45,1.45,0,0,1,.4.25,1.17,1.17,0,0,1,.36.53,1.22,1.22,0,0,1-.86,1.5,1.23,1.23,0,0,1-.66,0,.85.85,0,0,1-.28-.11,3,3,0,0,1-.3-.2,1.13,1.13,0,0,0-.34-.18.4.4,0,0,0-.38.07l-.15,0Zm0,.51-.19.7a.47.47,0,0,1,.17-.09l.21,0-.09-.18L38.15,93A1.72,1.72,0,0,1,38.1,92.71Zm.59-2.17a2,2,0,0,0-.14.32.9.9,0,0,0,0,.29.8.8,0,0,0,.06.3.76.76,0,0,0,.16.26.89.89,0,0,0,.3.24l.51.25a3.42,3.42,0,0,1,.47.25.91.91,0,0,1,.32.39.78.78,0,0,1,0,.48,1,1,0,0,1-.22.37.82.82,0,0,0,.33-1,1,1,0,0,0-.32-.37,4.35,4.35,0,0,0-.6-.33l-.4-.19a1.18,1.18,0,0,1-.48-.49.91.91,0,0,1,0-.61l0-.1A.19.19,0,0,1,38.69,90.54Zm2,.52.06-.52-.19,0a.82.82,0,0,1-.19-.09l.14.2c0,.07.07.16.11.25Z"/><path class="cls-1" d="M43.55,91l3.43.47.08.92-.2,0a1.7,1.7,0,0,0-.36-.57,1,1,0,0,0-.4-.25,3.54,3.54,0,0,0-.52-.11l-.43,3.07a.55.55,0,0,0,0,.27.33.33,0,0,0,.17.16,1.55,1.55,0,0,0,.36.09l0,.15-1.89-.26,0-.15a1.51,1.51,0,0,0,.36,0,.27.27,0,0,0,.21-.1.62.62,0,0,0,.1-.3l.42-3a3,3,0,0,0-.51,0,1.39,1.39,0,0,0-.39.1,1.78,1.78,0,0,0-.27.17l-.32.3-.17,0Zm.49.22-.44-.07-.17.45a1.72,1.72,0,0,1,.28-.24A1,1,0,0,1,44,91.22Zm.71,3.13.37-2.66a1,1,0,0,0,0-.24.16.16,0,0,0-.13-.1l-.42,3.07a.8.8,0,0,1-.08.26.42.42,0,0,1-.17.15h0q.21,0,.27-.09A1,1,0,0,0,44.75,94.35Zm2-2.32-.06-.44-.51-.07a1.11,1.11,0,0,1,.32.21A1.53,1.53,0,0,1,46.79,92Z"/><path class="cls-1" d="M51.67,95.46v-.15a1.29,1.29,0,0,0,.38-.06.2.2,0,0,0,.15-.14,1,1,0,0,0,0-.35V93.58H50.29v1.13a1.24,1.24,0,0,0,0,.3.33.33,0,0,0,.07.17.27.27,0,0,0,.15.08,1.78,1.78,0,0,0,.33,0v.15H49.05v-.15a1.15,1.15,0,0,0,.3,0,.27.27,0,0,0,.16-.08.31.31,0,0,0,.09-.16,2,2,0,0,0,0-.29l0-2.55c0-.17,0-.29-.13-.34a.89.89,0,0,0-.45-.09v-.15l1.82,0v.15a1.44,1.44,0,0,0-.39.06.28.28,0,0,0-.14.18,1.74,1.74,0,0,0,0,.38v1l1.94,0V92.23a.89.89,0,0,0,0-.29.25.25,0,0,0-.16-.12,1.42,1.42,0,0,0-.37,0v-.15l1.82,0v.15a1.29,1.29,0,0,0-.38.06.22.22,0,0,0-.15.16,1.83,1.83,0,0,0,0,.4l0,2.38a1.31,1.31,0,0,0,0,.33.27.27,0,0,0,.16.17.91.91,0,0,0,.38,0v.15Zm-2-3.22,0,2.6a.9.9,0,0,1-.05.34.5.5,0,0,1-.14.15h.08a.23.23,0,0,0,.22-.13.89.89,0,0,0,.06-.37l0-2.45a3.18,3.18,0,0,0,0-.38.22.22,0,0,0-.1-.17.41.41,0,0,0-.25,0,.36.36,0,0,1,.15.15A.76.76,0,0,1,49.69,92.24Zm2.62-.06,0,2.7a.6.6,0,0,1,0,.28.43.43,0,0,1-.15.15h.09a.27.27,0,0,0,.22-.09A.49.49,0,0,0,52.5,95l0-2.7a1.09,1.09,0,0,0,0-.37.25.25,0,0,0-.25-.12h-.07a.31.31,0,0,1,.15.15A.81.81,0,0,1,52.31,92.18Z"/><path class="cls-1" d="M56.89,93.15l.18,1.19a1.26,1.26,0,0,0,.08.3.23.23,0,0,0,.13.14.46.46,0,0,0,.22,0l.39,0a1.43,1.43,0,0,0,.92-.5,4.8,4.8,0,0,0,.39-.54l.21,0-.19,1-3.31.51,0-.15a1.47,1.47,0,0,0,.36-.1.27.27,0,0,0,.15-.15.39.39,0,0,0,0-.25L56,91.92a.6.6,0,0,0-.09-.27.26.26,0,0,0-.18-.09,1.78,1.78,0,0,0-.39,0l0-.15,3.19-.48.45.81-.19,0a2.43,2.43,0,0,0-.44-.3,2.14,2.14,0,0,0-.54-.18,1.72,1.72,0,0,0-.6,0,1,1,0,0,0-.36.11.28.28,0,0,0-.14.17.71.71,0,0,0,0,.26L56.87,93l.54-.08c.47-.07.68-.33.62-.76l.19,0,.22,1.43-.17,0a.75.75,0,0,0-.26-.44.6.6,0,0,0-.49-.08Zm-.78-1.22.4,2.6a.92.92,0,0,1,0,.3.45.45,0,0,1-.11.17c.15,0,.24-.08.27-.16a.76.76,0,0,0,0-.38l-.4-2.61a.41.41,0,0,0-.12-.29.47.47,0,0,0-.29,0,.34.34,0,0,1,.16.12A.76.76,0,0,1,56.11,91.93Zm2,1.21-.09-.53a.64.64,0,0,1-.34.33A.76.76,0,0,1,58,93,.47.47,0,0,1,58.15,93.14Zm.14-2-.49.07a1.89,1.89,0,0,1,.38.11,2.5,2.5,0,0,1,.37.18Zm.64,3.48.12-.49a1.64,1.64,0,0,1-.25.3l-.33.27Z"/><path class="cls-1" d="M60.9,90.44l3.32-1,.44.8-.18.06a1.57,1.57,0,0,0-.57-.37.9.9,0,0,0-.47-.07,4.11,4.11,0,0,0-.52.11l.87,3a.53.53,0,0,0,.13.25.28.28,0,0,0,.22.07,1.48,1.48,0,0,0,.36-.06l0,.15-1.83.53,0-.14a2.54,2.54,0,0,0,.34-.14.28.28,0,0,0,.14-.18.52.52,0,0,0,0-.32l-.86-2.94a2.78,2.78,0,0,0-.48.2,1.28,1.28,0,0,0-.3.25,1,1,0,0,0-.18.26l-.18.41-.16,0Zm.53,0-.42.12L61,91a1.69,1.69,0,0,1,.16-.33A1.37,1.37,0,0,1,61.43,90.44ZM63.36,93l-.75-2.57a.65.65,0,0,0-.1-.22.14.14,0,0,0-.15,0l.86,3a.57.57,0,0,1,0,.27.41.41,0,0,1-.1.21h.06c.13,0,.2-.1.21-.19A1.12,1.12,0,0,0,63.36,93Zm.92-2.94L64,89.68l-.49.14a1.08,1.08,0,0,1,.38.06A1.67,1.67,0,0,1,64.28,90.06Z"/><path class="cls-1" d="M66.14,88.74l1.67-.7.06.14a1.25,1.25,0,0,0-.34.21.27.27,0,0,0,0,.29c0,.07,0,.13.06.17l0,.06,1,2.31a.94.94,0,0,0,.13.23.22.22,0,0,0,.15.08.38.38,0,0,0,.15,0l.28-.08.06.14-1.68.7-.05-.14a1.3,1.3,0,0,0,.31-.19.22.22,0,0,0,.09-.2.87.87,0,0,0-.09-.32l-.94-2.25a2.71,2.71,0,0,0-.14-.29.27.27,0,0,0-.13-.11.48.48,0,0,0-.17,0l-.3.09Zm.85.34L68,91.59a.25.25,0,0,1,0,.2A.39.39,0,0,1,68,92a.67.67,0,0,0,.24-.16.24.24,0,0,0,0-.26l-1.11-2.67a.49.49,0,0,0-.18-.23.4.4,0,0,0-.31,0A.45.45,0,0,1,67,89s0,0,0,0S67,89.07,67,89.08Z"/><path class="cls-1" d="M72.51,85.55l.2-.11.58,1.06-.14.08a2.64,2.64,0,0,0-.47-.28,1.71,1.71,0,0,0-.44-.14,1.09,1.09,0,0,0-.4,0,1.32,1.32,0,0,0-.38.13,1.26,1.26,0,0,0-.39.37,1.19,1.19,0,0,0-.17.51,1.72,1.72,0,0,0,.06.62,3.21,3.21,0,0,0,.27.68,2.29,2.29,0,0,0,.62.74,1.54,1.54,0,0,0,.76.32,1.17,1.17,0,0,0,.75-.15,1.3,1.3,0,0,0,.39-.31,1.48,1.48,0,0,0,.27-.44,2,2,0,0,0,.14-.56h.19A2.23,2.23,0,0,1,74,89a2.2,2.2,0,0,1-.76.68,2.32,2.32,0,0,1-.78.26,2,2,0,0,1-.76-.07,1.82,1.82,0,0,1-.67-.36,1.93,1.93,0,0,1-.49-.6,2.06,2.06,0,0,1-.26-.78,2,2,0,0,1,.06-.77,1.87,1.87,0,0,1,.35-.67,2.08,2.08,0,0,1,.6-.5l.26-.12.31-.09.25-.06.13-.06A.46.46,0,0,0,72.51,85.55Zm-1.6,1a2.29,2.29,0,0,0-.42.67,1.86,1.86,0,0,0-.1.39,2.81,2.81,0,0,0,0,.41,1.6,1.6,0,0,0,.09.41,1.45,1.45,0,0,0,.16.38,2,2,0,0,0,.62.7,1.78,1.78,0,0,0,.86.31,2.08,2.08,0,0,0,1-.17,2.48,2.48,0,0,1-.71.07,1.93,1.93,0,0,1-1.21-.48,1.92,1.92,0,0,1-.39-.5,1.83,1.83,0,0,1-.2-.54,1.71,1.71,0,0,1,0-.59,2,2,0,0,1,.12-.55A3.82,3.82,0,0,1,70.91,86.58Zm1.84-.38-.24-.4a.61.61,0,0,1-.2.19l-.12.05a1.91,1.91,0,0,1,.3.07A2.67,2.67,0,0,1,72.75,86.2Z"/><path class="cls-1" d="M79.21,80.5l.17-.14.79.91-.13.11a2.25,2.25,0,0,0-.52-.17,1.86,1.86,0,0,0-.45-.06,1.24,1.24,0,0,0-.4.08,1.08,1.08,0,0,0-.34.2,1.11,1.11,0,0,0-.31.44,1.16,1.16,0,0,0-.06.53,1.85,1.85,0,0,0,.18.6,2.78,2.78,0,0,0,.4.61,2.24,2.24,0,0,0,.76.6,1.57,1.57,0,0,0,.8.17,1.26,1.26,0,0,0,.71-.3,1.52,1.52,0,0,0,.32-.39,1.44,1.44,0,0,0,.17-.48,1.86,1.86,0,0,0,0-.58l.18,0a1.94,1.94,0,0,1-.73,1.8,2.05,2.05,0,0,1-.71.41,1.79,1.79,0,0,1-.76.09,1.86,1.86,0,0,1-.72-.21,2.2,2.2,0,0,1-.61-.49,2,2,0,0,1-.41-.72,1.81,1.81,0,0,1-.09-.76,1.86,1.86,0,0,1,.21-.73,2,2,0,0,1,.48-.61,1.18,1.18,0,0,1,.24-.17,1.77,1.77,0,0,1,.28-.15l.23-.11a.94.94,0,0,0,.12-.09A.44.44,0,0,0,79.21,80.5Zm-1.36,1.33a2.4,2.4,0,0,0-.28.75,1.33,1.33,0,0,0,0,.4,1.68,1.68,0,0,0,.07.39,2.14,2.14,0,0,0,.16.39,2.16,2.16,0,0,0,.24.35,2,2,0,0,0,.74.55,1.66,1.66,0,0,0,.91.13,2,2,0,0,0,.94-.36,2.46,2.46,0,0,1-.68.22,2.21,2.21,0,0,1-.68,0,2.05,2.05,0,0,1-.6-.22,1.79,1.79,0,0,1-.49-.42,2,2,0,0,1-.31-.49,2,2,0,0,1-.15-.57,1.72,1.72,0,0,1,0-.56A3.32,3.32,0,0,1,77.85,81.83Zm1.73-.74-.31-.34a.76.76,0,0,1-.17.22L79,81h.31Z"/><path class="cls-1" d="M81,79.07l-.11-.1,1.25-1.42.11.1,0,.07A.79.79,0,0,0,82,78a.26.26,0,0,0,0,.21.6.6,0,0,0,.19.22l2,1.77a.57.57,0,0,0,.22.13.34.34,0,0,0,.22-.06A1.35,1.35,0,0,0,84.9,80a3.33,3.33,0,0,0,.24-.32,1.22,1.22,0,0,0,.14-.35,2,2,0,0,0,0-.44,3,3,0,0,0-.06-.56l.17-.19.49.92-2.19,2.47-.11-.1,0,0a1.19,1.19,0,0,0,.21-.31.26.26,0,0,0,0-.21.77.77,0,0,0-.18-.21L81.76,79a1.23,1.23,0,0,0-.26-.18.22.22,0,0,0-.22,0A1.07,1.07,0,0,0,81,79.07Zm.77-.23,2.08,1.85a.39.39,0,0,1,.13.17.6.6,0,0,1,0,.19l0,0s0,0,0,0,.09-.29-.11-.47l-2-1.73a1.07,1.07,0,0,0-.34-.24c-.08,0-.17,0-.26.09l-.06.06a.41.41,0,0,1,.21,0A.61.61,0,0,1,81.75,78.84Zm3.56.69.33-.38-.24-.53a2.37,2.37,0,0,1,0,.46A2,2,0,0,1,85.31,79.53Z"/><path class="cls-1" d="M84.36,74.8l1-1.48.12.09a1.13,1.13,0,0,0-.17.36.26.26,0,0,0,.11.26l.14.12,0,0,2,1.45a.85.85,0,0,0,.23.12h.16a.38.38,0,0,0,.13-.09,2.79,2.79,0,0,0,.2-.22l.12.09L87.5,77l-.12-.09a1.12,1.12,0,0,0,.17-.32.27.27,0,0,0,0-.22,1.17,1.17,0,0,0-.25-.23l-2-1.4a1.38,1.38,0,0,0-.28-.17.27.27,0,0,0-.17,0l-.14.09-.2.24Zm.91-.16,2.21,1.57a.32.32,0,0,1,.14.15.52.52,0,0,1,0,.22.77.77,0,0,0,.12-.27c0-.08,0-.15-.13-.22l-2.36-1.67a.41.41,0,0,0-.27-.1c-.08,0-.16.07-.24.2a.41.41,0,0,1,.45.07l0,0Z"/><path class="cls-1" d="M87.93,69.37l-.13-.07L88.5,68l.13.07a.66.66,0,0,0-.08.32.53.53,0,0,0,.09.3.69.69,0,0,0,.27.23l2.77,1.45-.08.15-4.19.89,1.94,1,.32.14a.8.8,0,0,0,.26,0,.51.51,0,0,0,.24-.1,1.09,1.09,0,0,0,.24-.27l.13.08-.69,1.27-.13-.08a.72.72,0,0,0,.06-.44.55.55,0,0,0-.2-.3,2.85,2.85,0,0,0-.42-.26l-2-1a1.42,1.42,0,0,0-.37.15.52.52,0,0,0-.22.22l0,0-.13-.07.54-1L90.66,70,89,69.15a1.34,1.34,0,0,0-.35-.14.57.57,0,0,0-.29,0,.74.74,0,0,0-.22.13A.87.87,0,0,0,87.93,69.37Zm3,1-3.68.79a1.17,1.17,0,0,0-.25.07.53.53,0,0,0-.21.23l-.06.1a.68.68,0,0,1,.24-.14,3,3,0,0,1,.34-.09l4.19-.9-.13-.07-.11,0a.17.17,0,0,0-.1,0Zm-2.53-1.87-.29.53a.68.68,0,0,1,.22-.14.76.76,0,0,1,.27,0A.51.51,0,0,1,88.39,68.53Zm1.48,4.69.28-.5a.6.6,0,0,1-.23.06.54.54,0,0,1-.24,0,.7.7,0,0,1,.15.2A.77.77,0,0,1,89.87,73.22Z"/><path class="cls-1" d="M89.21,66.33l.67-1.68.14,0a1.13,1.13,0,0,0-.08.4.25.25,0,0,0,.17.23l.17.08,0,0,2.33.94a.69.69,0,0,0,.25.06.27.27,0,0,0,.16,0,.43.43,0,0,0,.11-.12l.13-.25.14,0-.68,1.69-.14-.06a1.43,1.43,0,0,0,.1-.36.26.26,0,0,0-.09-.21,1.06,1.06,0,0,0-.29-.15l-2.26-.91a1.31,1.31,0,0,0-.31-.1.25.25,0,0,0-.17,0,.43.43,0,0,0-.11.12,2.12,2.12,0,0,0-.15.28Zm.84-.36,2.52,1a.32.32,0,0,1,.17.12.47.47,0,0,1,.06.2.62.62,0,0,0,0-.28.23.23,0,0,0-.17-.19L90,65.75a.48.48,0,0,0-.28,0c-.08,0-.14.11-.19.25a.43.43,0,0,1,.46,0l0,0A.05.05,0,0,1,90.05,66Z"/><path class="cls-1" d="M91.41,59.54l.06-.21,1.17.32,0,.16a3.25,3.25,0,0,0-.52.14,1.74,1.74,0,0,0-.41.21,1.14,1.14,0,0,0-.29.29,1,1,0,0,0-.17.36,1.06,1.06,0,0,0,0,.53,1.23,1.23,0,0,0,.25.48,1.94,1.94,0,0,0,.48.39,2.5,2.5,0,0,0,.67.28,2.37,2.37,0,0,0,1,.09,1.58,1.58,0,0,0,.76-.32,1.17,1.17,0,0,0,.42-.64,1.37,1.37,0,0,0,0-.49,1.58,1.58,0,0,0-.12-.51,2.45,2.45,0,0,0-.3-.5l.13-.13a2,2,0,0,1,.44.89,2,2,0,0,1-.05,1,1.85,1.85,0,0,1-.36.73,1.74,1.74,0,0,1-.58.5,2,2,0,0,1-.72.23,2.24,2.24,0,0,1-.77-.07,2.06,2.06,0,0,1-.74-.37,1.75,1.75,0,0,1-.51-.58,2.09,2.09,0,0,1-.23-.72,2.06,2.06,0,0,1,.06-.78,1.69,1.69,0,0,1,.1-.27c0-.08.09-.18.15-.28l.13-.22.06-.14A.49.49,0,0,0,91.41,59.54ZM91,61.41a2.35,2.35,0,0,0,.19.77,1.2,1.2,0,0,0,.21.34,1.92,1.92,0,0,0,.28.29,1.77,1.77,0,0,0,.35.23,1.56,1.56,0,0,0,.39.15,2,2,0,0,0,.93.05,1.69,1.69,0,0,0,.82-.39,2.1,2.1,0,0,0,.58-.83,2.22,2.22,0,0,1-.45.56,2,2,0,0,1-.56.37,1.71,1.71,0,0,1-.62.15A2,2,0,0,1,92.5,63a2.07,2.07,0,0,1-.53-.24,1.85,1.85,0,0,1-.45-.38,3,3,0,0,1-.31-.48C91.15,61.78,91.08,61.61,91,61.41Zm1-1.58-.45-.11a.9.9,0,0,1,0,.28.61.61,0,0,1,0,.12,2.26,2.26,0,0,1,.26-.17A2.06,2.06,0,0,1,92.05,59.83Z"/><path class="cls-2" d="M51.14,73.84c-14.38,0-26.76-5.3-31.7-13.61l-.67-1.15,1.11-.71a18.43,18.43,0,0,1,9.8-2.89,39.18,39.18,0,0,1-1.75-10l-.07-1.26L29.11,44a18.7,18.7,0,0,1,11.6,2.66c.58-6,3.54-12.53,8.87-19.49l.88-1.14,1.1.92C55.47,30.24,61,39,61.11,48.33a21.1,21.1,0,0,1-7.69,16.73L51.62,63a18.46,18.46,0,0,0,6.74-14.62c-.08-7.5-4.2-14.81-7.51-18.27-3.91,5.37-7.3,11.89-7.4,18.42a23.71,23.71,0,0,1,2.41,2.18c3.84,4,5.47,8.81,4.59,13.49L50,66.61l-1.83-1.68c-4.75-4.39-7.26-9.45-7.53-15.06a17.78,17.78,0,0,0-9.86-3.23,32.54,32.54,0,0,0,1.9,9c.71.11,1.41.25,2.11.43a20.89,20.89,0,0,1,13.09,10.8l1.22,2.3-2.58-.28C39,68.09,33.74,64.57,30.78,58.25A16,16,0,0,0,22.57,60c4.9,6.82,15.85,11.11,28.56,11.11h.8c13.19-.19,23.95-4.93,28.1-12.39L82.43,60C77.81,68.34,66.14,73.63,52,73.83ZM34.2,58.8a14.87,14.87,0,0,0,9.68,6.88A17.64,17.64,0,0,0,34.2,58.8Zm9.62-6.26a18.29,18.29,0,0,0,4.06,8.13,13.72,13.72,0,0,0-4-8.08Z"/><path class="cls-3" d="M69.87,27.54a36.66,36.66,0,0,1-1.62,5.91C65.52,38.75,61.87,41.8,57,47.54,48.58,56.72,50,66,55.76,70.25S78,66.87,81.23,59.36c-5,4.73-15.84,9.45-21,8-5.06-1.08-3.87-8.11,3.1-7.19,8.26.36,11.94.39,10.71-1.76A9.88,9.88,0,0,1,74,53.48c1.39-.79,2.32-1.57-.59-2.17,2.65-1.23,3.86-2.38,2.09-3.35-.62-1.12-.5-1.91,1.43-1.93,1.69-.8,1.15-2-.76-3.43l-3.6-3.85c-.27-.15-.49-.54-.61-1.32,0-.08,1.26-.14,1.77-.63a3.44,3.44,0,0,1-1.84.08,24.28,24.28,0,0,1,0-3.32C71.91,30,71.1,27.25,69.87,27.54Z"/></svg>